<svg xmlns="http://www.w3.org/2000/svg" viewBox="0 0 161.66 155.88"><defs><style>.cls-1{opacity:0.7;}.cls-2{fill:#fff;}.cls-3{fill:#222653;fill-rule:evenodd;}</style></defs><g id="Calque_2" data-name="Calque 2"><g id="Mode_Isolation" data-name="Mode Isolation"><g class="cls-1"><path class="cls-2" d="M155.05,67l6.5-21.23A2.24,2.24,0,0,0,160,43l-8.62-2.41a7.8,7.8,0,0,1-3.59-2.49l-2.47-3.38a6.27,6.27,0,0,0-3.66-2.18l-8.25-1.11a8.32,8.32,0,0,1-4-1.91L100.19,1.6a6.62,6.62,0,0,0-4-1.6h-4a3.48,3.48,0,0,0-3.07,2.18L85.39,12.77A6.65,6.65,0,0,1,82.58,16L62.75,26.37a4.91,4.91,0,0,1-4.09,0L43.3,18.1c-1.12-.61-2-.06-2,1.21l.27,16.4a1.35,1.35,0,0,1-2.07,1.35L22.9,29.45a12.66,12.66,0,0,0-4.42-1H2A1.88,1.88,0,0,0,0,30.76l1.63,9.29a5,5,0,0,0,2.5,3.26L22.87,52.1a6.06,6.06,0,0,1,2.79,3.19L36.06,88a7.38,7.38,0,0,1-.18,4.34L21.33,128a3,3,0,0,0,1,3.48L39,143.33a9.82,9.82,0,0,0,4.19,1.52l8.57.68a19.65,19.65,0,0,1,4.47,1L81,155.74a1.85,1.85,0,0,0,2.56-1.48L84.6,148a4.78,4.78,0,0,1,2.5-3.21l10-4.38a6.48,6.48,0,0,1,4.28-.12L127.22,150a5.61,5.61,0,0,0,4.18-.33l17.83-10.07a1.7,1.7,0,0,0,.4-2.8l-9.26-9.52a3.62,3.62,0,0,1-.64-3.76l6.37-13.63a7.93,7.93,0,0,0,.47-4.36l-3.25-14.22a1.6,1.6,0,0,0-2.51-1.08l-4.57,2.68c-1.1.65-2,.14-2-1.14V88.22A5.54,5.54,0,0,1,136,84.43l16.56-13.71A9.12,9.12,0,0,0,155.05,67Z"/></g><path class="cls-3" d="M121.57,49.13A2.57,2.57,0,1,1,119,51.69,2.57,2.57,0,0,1,121.57,49.13Z"/><path class="cls-3" d="M118.52,39.23a2.57,2.57,0,1,1-2.58,2.56A2.58,2.58,0,0,1,118.52,39.23Z"/></g></g></svg>