<svg xmlns="http://www.w3.org/2000/svg" viewBox="0 0 97.11 88.15"><defs><style>.cls-1{fill:#1d1d1b;}</style></defs><g id="Calque_2" data-name="Calque 2"><g id="Calque_1-2" data-name="Calque 1"><rect class="cls-1" x="54.27" y="36.63" width="33.01" height="19.43"/><path class="cls-1" d="M96.46,36.63H75.35a26.14,26.14,0,0,1,.93,6.91c0,13.25-9.86,24-22,24s-22-10.74-22-24a24.83,24.83,0,0,1,8-18.55H13.4A44.05,44.05,0,1,0,96.46,36.63Z"/><path class="cls-1" d="M53.17,0A44,44,0,0,0,16.66,19.45H56v.08a21.73,21.73,0,0,1,16.71,10.7H95A44,44,0,0,0,53.17,0Z"/><path class="cls-1" d="M50.77.07H0L7.45,19.52H58.59V7.9A7.82,7.82,0,0,0,50.77.07Z"/></g></g></svg>