<?xml version="1.0" encoding="utf-8"?>
<!-- Generator: Adobe Illustrator 24.0.0, SVG Export Plug-In . SVG Version: 6.00 Build 0)  -->
<svg version="1.1" id="Calque_1" xmlns="http://www.w3.org/2000/svg" xmlns:xlink="http://www.w3.org/1999/xlink" x="0px" y="0px"
	 viewBox="0 0 375 266" style="enable-background:new 0 0 375 266;" xml:space="preserve">
<style type="text/css">
	.st0{fill:none;}
	.st1{fill:#D04992;}
	.st2{fill:#B7CF53;}
	.st3{fill:#F3BA44;}
	.st4{fill:#202954;}
	.st5{fill:none;stroke:#202954;stroke-width:5.33;stroke-linecap:round;stroke-linejoin:round;}
	.st6{enable-background:new    ;}
	.st7{fill:#FFFFFF;}
</style>
<title>logo</title>
<g id="Calque_2_1_">
	<g id="Calque_1-2">
		<g id="Calque_2-2">
			<path class="st0" d="M349.1,132.9c-0.9,3.4-1.5,6.9-1.8,10.4c0,0.3,0,0.6-0.1,0.9l0.1-0.1c1.5-1.7,2.8-3.6,4-5.5
				c0.6-1,1.8-2.9,2.6-4.3l0.5-0.9C352.7,133.5,350.8,133.3,349.1,132.9L349.1,132.9z"/>
			<path class="st0" d="M325.1,108.8c-0.4,0.4-1.5,1.6-3,4.8c-1.5,3.3-2.8,6.7-3.8,10.2c-0.4,1.3-0.8,2.7-1.2,4
				c1.5-3,3.1-6.3,4.7-9.7c0.9-2.7,1.9-5.2,2.9-7.6c0.4-0.9,0.8-1.7,1.1-2.6c-0.2,0.2-0.4,0.4-0.6,0.6
				C325.3,108.6,325.2,108.7,325.1,108.8z"/>
			<path class="st1" d="M203.2,107.2c0.6-1.4,1.2-2.8,1.8-4.1c1.5-3.3,3.3-6.5,5.4-9.4h-1.7C206.8,98.2,204.9,102.7,203.2,107.2z"/>
			<path class="st1" d="M282.2,32.7C228.4-17,140.9,16.8,130.1,86.1c2.1-0.5,4.2-0.8,6.4-0.8h1.5c13.9,0,26.4,8.4,31.8,21.2
				c0.7-2.1,1.5-4.3,2.2-6.5c0.6-1.6,1.1-3.1,1.7-4.6h-0.5c-4.1,0.1-8.1-1.6-10.8-4.7c-2.1-2.2-3.6-4.8-4.4-7.7
				c-0.8-2.7-0.9-5.5-0.3-8.3c1.2-5.1,5.1-8.4,10.1-8.4c2,0,3.9,0.7,5.3,2c0.9,0.3,1.7,0.4,2.6,0.5c3,0.4,6,0.5,9.1,0.6
				c1.3-2.7,2.6-5.2,3.8-7.6c1.8-3.5,3.8-7,6-10.3c1.8-2.7,3.8-5.3,6.1-7.7c3.2-3.2,6.4-4.8,9.8-4.8c3-0.1,5.9,0.3,8.7,1.2
				c2.5,0.8,4.8,2.1,6.8,3.9c2.2,1.9,3.6,4.5,4.1,7.4c0.4,3.1-0.5,6.2-2.6,8.6c-1.8,2.3-3.6,4.9-5.3,7.6c3.7,0.1,7.2,1.5,9.9,3.9
				c2.3,2,4,4.6,5,7.5c0.9,2.6,1.1,5.4,0.6,8.2c0,0.2-0.1,0.3-0.1,0.5c1.8-1.1,3.8-1.6,5.9-1.7c2.5,0,5,0.4,7.4,1
				c2.7,0.7,5.2,1.7,7.6,3c2,1.1,3.9,2.5,5.6,4.1c0.5-0.6,0.9-1.2,1.4-1.7c4-4.7,8.3-5.6,11.2-5.6c2.9-0.1,5.8,0.3,8.6,1.1
				c2.5,0.8,4.8,2.1,6.8,3.9c1.2,1.1,2.2,2.4,2.9,3.8l0.3-0.5c1.3-2,2.9-3.8,4.8-5.2c2.4-1.9,5.4-3,8.5-3h1.3
				C307.6,66.1,297.7,46.9,282.2,32.7z"/>
			<path class="st1" d="M264.5,171.8c-0.5-0.3-1-0.5-1.4-0.8c-2.9-1.9-5.4-4.3-7.4-7.1c-1.9-2.7-3.3-5.6-4.3-8.8
				c-0.9-3.3-1.3-6.7-1.2-10.1c0-1.5,0-3.1,0.2-4.7c-1.7,0.7-3.4,1.1-5.2,1.1c-3-0.1-6-0.9-8.6-2.3l-0.2-0.1
				c-0.2-0.1-0.4-0.3-0.6-0.4c-3.3,8.6-6.7,18.4-10.2,29.1c-1.1,3.4-4.3,5.7-7.8,5.7H217c-3.9,0-7.7-1.1-11-3.2
				c-2.5-1.6-4.7-3.6-6.5-5.9c-1.3,1.7-2.8,3.2-4.4,4.7c-2.7,2.5-6.2,3.9-9.9,4c-3.9,0-7.7-1.1-11-3.2c-2.9-1.9-5.4-4.3-7.4-7.1
				c-3.4-4.9-5.3-10.6-5.7-16.5c-2.9,2.8-6.3,5-10,6.6c0.8,2.9,2.3,5.6,4.4,7.8c3.3,3.2,3.3,8.4,0.2,11.7c-1.5,1.6-3.6,2.5-5.8,2.5
				h-0.5c-1-0.1-2-0.2-3-0.3c22.2,44.5,63.9,78.4,116.3,81.7c-15.4-14.6-25.7-38.6-27-66c13.6-2.3,26.5-7.7,37.6-15.9
				C270.2,174,267.2,173.2,264.5,171.8z"/>
			<path class="st2" d="M363.9,133c-0.9,1.5-2.5,4.3-3.5,5.8c-1.4,2.3-3,4.5-4.8,6.5c-1.4,1.7-3,3.2-4.7,4.6
				c-1.2,1.1-2.8,1.7-4.4,1.8c-2.3,0-3.8-1.3-4.6-3.8c-0.8-3.1-1.1-6.3-0.7-9.5c0.4-4.2,1.1-8.3,2.2-12.4c1.1-4.2,2.4-8.4,4.1-12.4
				c1.4-3.3,3.1-6.5,5.1-9.5c1.8-2.5,3.5-3.8,5.1-3.8c1.3,0,1.9,1,1.6,2.9c-0.3,2.2-1,4.3-2,6.3c-1,2.2-2.3,4.3-3.7,6.3
				c-1.4,1.9-2.6,2.9-3.5,2.9c1.3,1.4,3,2.1,4.9,2.2c1.7,0,3.3-0.6,4.6-1.5c1.6-1.1,2.9-2.4,4-4c1.2-1.6,2.1-3.4,2.8-5.3
				c0.7-1.8,1.1-3.8,1.1-5.8c0-1.8-0.6-3.6-1.6-5.1c-1.1-1.7-2.6-3.1-4.2-4.2c-1.9-1.2-3.9-2.1-6-2.8c-2.2-0.7-4.6-1.1-7-1.1
				c-2.2,0-4.5,1.8-7.1,5.3c-2.9,4.1-5.3,8.5-7.3,13.1c-1,2.4-2,4.9-2.9,7.5c-3.2,6.6-6.1,12.6-8.8,17.8c-1.2,2.4-2.5,4.8-3.8,7
				s-2.5,4.3-3.6,6.1c-0.9,1.5-1.9,3-3,4.3c-0.9,1.1-1.7,1.6-2.3,1.6c-1.3,0-2.2-1.1-2.5-3.4c-0.3-2.3-0.4-4.7-0.2-7.1
				c0-0.6,0.1-1.1,0.1-1.8c0.3-4,1-8,1.8-11.9c0.9-4.3,2-8.5,3.3-12.6c1.1-3.6,2.4-7.1,3.9-10.4c0.1-0.2,0.2-0.5,0.3-0.7
				c1.1-2.8,2.8-5.3,4.9-7.4c0.6-0.6,0.8-1.4,0.7-2.2c-0.2-1-0.7-1.8-1.4-2.5c-1.1-0.9-2.4-1.7-3.8-2.1c-0.3-0.1-0.6-0.2-0.9-0.2
				c-1.7-0.4-3.4-0.6-5.2-0.6h-0.3c-2.2,0.1-4.2,1.6-6.1,4.5c-1.3,2-2.4,4.1-3.4,6.3c-0.7,1.6-1.4,3.3-2.1,5.1c-0.4,1.1-1,3-1.8,5.6
				s-1.9,5.6-3.1,8.9s-2.5,6.7-4,10.3s-2.9,6.8-4.3,9.7c-1.2,2.5-2.6,4.9-4.1,7.2c-1.3,1.9-2.5,2.8-3.6,2.8c-1.3,0-2.2-1.1-2.5-3.3
				c-0.4-2.8-0.4-5.6-0.1-8.4c0.4-3.8,1-7.6,1.8-11.4c0.9-4.1,2-8.1,3.3-12.1c1.2-3.7,2.6-7.3,4.2-10.7c1.2-2.7,2.8-5.1,4.9-7.2
				c0.6-0.6,0.8-1.4,0.7-2.2c-0.2-1-0.7-1.9-1.5-2.5c-1.1-1-2.4-1.7-3.8-2.1c-1.9-0.6-4-0.9-6-0.8c-1.7,0-3.3,0.9-5,2.8
				c-1.8,2.2-3.3,4.6-4.5,7.2c-0.2,0.4-0.4,0.8-0.6,1.3c-1.2,2.9-2.3,5.8-3.2,8.8c-0.5,1.7-0.8,2.7-1.4,5c-0.3,1-1,4.1-1.8,8
				c-1,5.2-2.1,11.8-2,16.8c-0.1,2.6,0.2,5.2,0.8,7.7c0.7,2.3,1.8,4.5,3.2,6.5c1.3,1.9,3,3.6,5,4.9c2,1.3,4.3,1.9,6.6,1.9h0.3
				c1.6-0.1,3.2-0.6,4.5-1.4c1.7-1.1,3.2-2.4,4.4-4c1.5-1.8,2.8-3.8,3.9-5.9c1.2-2.2,2.4-4.5,3.4-6.9c0.3,2.2,0.8,4.3,1.5,6.3
				c0.2,0.5,0.4,1.1,0.6,1.6c0.7,1.5,1.6,3,2.6,4.3c0.6,0.7,1.2,1.4,1.9,2c0.9,0.9,1.9,1.6,3,2.3c1.9,1.1,4,1.7,6.2,1.7
				c1.7-0.1,3.3-0.8,4.5-2c1.8-1.6,3.4-3.3,4.8-5.2c1.7-2.3,3.3-4.8,4.7-7.3c1.4-2.4,2.7-5,4-7.6v1.7c0.1,2.1,0.5,4.1,1.4,6
				c1,2.5,2.6,4.8,4.5,6.8c2.3,2.3,5,4.2,8,5.5c3.8,1.7,7.9,2.5,12,2.5c0.8,0,1.9-0.7,3.1-2.1c1.5-1.7,2.8-3.6,4-5.5
				c1.4-2.3,2.9-4.9,4.4-7.8c1.5-2.9,3-5.8,4.4-8.9L363.9,133z M271.5,107.5c-1.3-5.8,3.4-11.7,8.2-14.3c0.4-0.2,0.8,0.3,0.5,0.6
				c-1.9,1.8-3.5,3.9-4.5,6.3c-1.1,2.4-1.3,4.8-2,7.4c-0.2,0.6-0.8,0.9-1.4,0.7C271.9,108.1,271.6,107.9,271.5,107.5L271.5,107.5z
				 M310.8,94l1.1-0.7c0.4-0.2,0.9,0.3,0.5,0.6c-0.6,0.5-1.1,1-1.6,1.6c-1.2,1.4-2.2,3-3,4.7c-1.1,2.4-1.3,4.9-2,7.4
				c-0.2,0.6-0.8,0.9-1.4,0.8c-0.4-0.1-0.7-0.4-0.8-0.8C302.5,102.2,306.4,96.8,310.8,94z M338.6,154.6c-6.5-3.8-9.3-11.8-6.5-18.8
				c0.1-0.2,0.3-0.3,0.6-0.2c0,0,0,0,0,0c0.2,0.1,0.3,0.3,0.3,0.4c-1.1,6.4,1.5,12.8,6.8,16.5c0.5,0.4,0.6,1.2,0.2,1.7
				C339.6,154.6,339.1,154.8,338.6,154.6L338.6,154.6z"/>
			<path class="st2" d="M261.8,98.1c-0.2-0.2-0.3-0.4-0.5-0.6c-1.3-1.3-2.8-2.5-4.4-3.3c-1.8-1-3.6-1.7-5.6-2.2
				c-1.8-0.5-3.7-0.7-5.5-0.7c-1.7,0-3.7,1.7-6,5c-2.7,3.9-5.1,8-7.2,12.3c-2.5,4.9-4.8,10.1-7.1,15.6c-2.3,5.5-4.3,10.5-6,14.8
				c0.8-3.9,1.9-7.8,3.2-11.9s2.6-8,4.1-11.6c1.3-3.4,2.8-6.6,4.4-9.8c1.1-2.4,2.6-4.6,4.4-6.6c0.6-0.6,0.8-1.4,0.7-2.2
				c-0.2-1-0.7-1.9-1.5-2.5c-1.1-1-2.4-1.7-3.8-2.1c-1.9-0.6-4-0.9-6-0.8c-1.7,0-3.4,1.2-5.2,3.4c-2,2.6-3.7,5.5-5,8.6
				c-1.7,3.7-3.2,7.5-4.4,11.4c-1.1,3.4-2.2,6.8-3.1,9.9c-1.7,3.5-3.4,6.8-5,9.8c-1.2,2.4-2.5,4.8-3.8,7s-2.5,4.3-3.6,6.1
				c-0.9,1.5-1.9,3-3,4.3c-0.9,1.1-1.7,1.6-2.3,1.6c-2.1,0-3.1-2.2-3.2-6.5c0.1-5.7,0.9-11.3,2.3-16.8c1.8-7.7,4.1-15.4,6.8-22.9
				c2.9-8.4,6.3-16.7,10-24.9c1.6-0.1,3.1-0.2,4.5-0.2h4.1c4.1,0,7.6,0.2,10.6,0.4s4.8,0.8,5.5,1.5c1,0,1.6-0.6,1.8-1.8
				c0.2-1.3,0.1-2.7-0.4-4c-0.5-1.5-1.5-2.9-2.7-4c-1.4-1.2-3.2-1.9-5.1-1.8l0.5,0.2c-1.3,0-3.3,0.1-5.8,0.2s-5.4,0.3-8.5,0.5
				c2-4.2,4.2-8.2,6.4-11.8c2.1-3.5,4.4-6.9,6.9-10.1c0.6-0.6,0.9-1.4,0.7-2.2c-0.2-1-0.8-1.9-1.5-2.5c-1.1-0.9-2.4-1.6-3.8-2
				c-1.9-0.6-4-0.9-6-0.8c-1.1,0-2.4,0.8-4,2.3c-1.9,2-3.6,4.1-5.1,6.4c-2,3.1-3.9,6.3-5.6,9.6c-1.9,3.7-3.9,7.7-6,12h-3.4
				c-3.9,0-7.9-0.2-11.8-0.6c-3.4-0.4-5.8-1.2-6.9-2.4c-1.1,0-1.8,0.7-2.1,2c-0.3,1.4-0.2,2.9,0.2,4.3c0.5,1.6,1.3,3.1,2.4,4.3
				c1.2,1.3,2.9,2.1,4.7,2c1.1,0,2.8-0.1,5.1-0.2s4.9-0.3,7.9-0.5c-2.3,5.3-4.4,10.8-6.4,16.3c-2,5.6-3.8,10.9-5.3,16.2
				c-1.6,5.2-2.8,10-3.7,14.4c-0.8,3.7-1.3,7.5-1.4,11.4c0,2.3,0.4,4.6,1.1,6.8c0.7,2.3,1.8,4.5,3.1,6.5c1.3,1.9,3.1,3.6,5.1,4.9
				c2,1.3,4.2,1.9,6.6,1.9c1.7-0.1,3.2-0.8,4.4-2c1.7-1.6,3.3-3.3,4.7-5.2c1.7-2.3,3.3-4.8,4.7-7.3c0.7-1.3,1.4-2.6,2.1-3.9
				c0.3,4.3,1.7,8.4,4.2,12c1.3,1.9,3.1,3.6,5.1,4.9c2,1.2,4.3,1.9,6.6,1.9h0.7c3.6-11.1,7.1-21.1,10.5-30c1.4-3.8,2.9-7.6,4.5-11.3
				c1.6-3.7,3.1-7,4.6-10.1c1.3-2.6,2.7-5.2,4.2-7.7c1.3-2,2.5-3.3,3.6-3.8c-1.6,2.6-2.9,5.3-4,8.1c-1.1,2.5-2.1,5-2.9,7.6
				c-0.8,2.5-1.2,5.1-1.3,7.8c-0.1,2.5,1.2,4.8,3.3,6c2.2,1.1,6.3,2.7,8.6-0.5c0.3-0.5,0.9-1.3,1.5-2.3c3.5-5.8,10.4-19.2,10.6-24
				C263,100.5,262.6,99.2,261.8,98.1z M181.8,156.2c-8-6.6-7.8-15.7-4.3-24.9c0-0.1,0.2-0.2,0.3-0.2c0,0,0,0,0,0
				c0.1,0,0.2,0.2,0.2,0.3c-0.6,3.8-0.8,7.7-0.4,11.5c0.4,5,2.9,7.8,5.9,11.5c0.5,0.5,0.5,1.3,0,1.7S182.3,156.7,181.8,156.2
				L181.8,156.2z M217.1,109.3c-1.3-5.8,3.4-11.7,8.2-14.3c0.4-0.2,0.9,0.3,0.5,0.6c-1.9,1.8-3.5,3.9-4.5,6.3
				c-1.1,2.5-1.3,4.9-2,7.4c-0.2,0.6-0.9,0.9-1.5,0.7C217.5,109.9,217.2,109.6,217.1,109.3L217.1,109.3z"/>
			<path class="st3" d="M112.5,116.2L112.5,116.2C112.5,116,112.5,115.6,112.5,116.2z"/>
			<path class="st3" d="M112.5,116.2"/>
			<path class="st3" d="M157.8,97.4c-6-5.6-14.2-8-22.3-6.6c-2.1,0.4-4.2,1-6.1,1.8c-3.8,1.6-7.2,4-10,7.1
				c-4.1,4.5-6.5,10.4-6.8,16.6l0,0c-0.3,13.1,4.7,25.7,13.8,35.1c4,4.1,8.8,7.3,14.2,9.5c3.7,1.4,7.6,2.3,11.6,2.6
				c-4.5-4.3-7.6-11.4-8-19.5c8.2-1.4,15.2-6.6,19-14c2-3.8,3.1-8,3.2-12.3C166.5,109.8,163.4,102.5,157.8,97.4z M122.8,137.4
				c-0.1,0-0.2,0-0.2-0.1c-5.5-6-7.2-19.2-4.5-26.7c0.2-0.6,0.7-0.9,1.3-0.8c0.7,0.1,1.1,0.8,1,1.4l0,0c-0.3,2.3-0.5,4.7-0.5,7
				c0,4,0.6,8.1,1.6,12c0.5,2.1,1.2,4.3,1.9,6.5c0.1,0.2-0.1,0.5-0.3,0.6C122.9,137.3,122.8,137.3,122.8,137.4L122.8,137.4z"/>
			<path class="st2" d="M131,40.2c-1-2.7-2.3-5.2-4-7.5c-1.5-2.1-3.3-4-5.4-5.5c-1.6-1.2-3.6-2-5.6-2.2h-0.1
				c-13.8,1.1-27.7,0.2-41.2-2.6C61,19.6,47.9,14.3,36.1,6.7c-0.3-0.2-0.8-0.2-1,0.2C35,6.9,35,7,35,7.1c-1.3,5.8-3.7,27.2-0.9,34.7
				c1.6,3.3,5.6,6.3,11.1,9s16.8,6.8,40.5,5.4c6.3-0.4,13.1-1,16.1-1.3c0.4,0,0.8,0.3,0.8,0.7c0,0.2,0,0.4-0.1,0.5
				c-1.5,2-3.1,3.9-4.9,5.6C78.7,80.8,67.8,88.5,33,111c-18.7,12.1-19.2,27-19,30.6c0.2,5.4,2.2,10.6,5.6,14.9
				c1.8,2.3,6.1,5.8,8.2,7.3c0.3,0.2,0.6,0.2,0.8,0c8.1-5.4,15.4-10.6,24.7-9.7c6.3,0.6,12.1,3.6,17.7,6.7s11.2,6.5,17.4,7.9
				c5.8,1.3,12.2,0.7,17-3l-0.2,0.2c0.6-0.5,1.2-1,1.8-1.5c1.9-1.6,3.5-3.5,4.9-5.5c0.8-1.2,1.5-2.5,2.1-3.8c0.4-1,0.7-2.1,0.9-3.2
				c0.3-1.9-0.2-2.9-1.3-3.1c-0.3,0-0.6,0.1-0.8,0.3c-0.5,0.6-1.2,1.1-1.9,1.5c-2.1,1.1-4.5,1.6-6.9,1.5c-1.7-0.1-4.2-1-7.3-3.1
				s-6.5-4.4-10.1-6.9c-3.5-2.5-7.2-4.8-11-6.9c-3.1-1.7-6.6-2.8-10.2-3.1c-7-0.6-12.3,1.1-15.9,3.4c-2.3,1.4-4.5,3-6.5,4.6
				c-0.3,0.3-0.8,0.2-1-0.1c-0.2-0.3-0.2-0.7,0-0.9c2.7-3.9,8.8-11,22.2-22.8c4.9-4.3,23.1-19.3,35.4-31C105.8,79.5,111.2,74,116,69
				s8.8-9.3,11.8-12.9s4.5-6.1,4.6-7.5C132.5,45.7,132,42.9,131,40.2z M61.3,47.7c-6.1,1.1-13.2-2.4-16.2-7.9
				c-0.4-0.8,0.3-2,1.3-1.4c2.3,1.4,4.2,3.3,6.7,4.4c2.6,1,5.3,1.6,8.1,1.7c0.9,0,1.7,0.6,1.7,1.6C62.9,46.8,62.2,47.6,61.3,47.7z
				 M27,155.7c-3.8-2-6.5-5.8-7.1-10.1c-0.7-4.5,1.2-7.7,4.1-10.9c0.7-0.8,1.8,0.4,1.1,1.1c-4.9,5.9-0.2,12.7,4.3,16.7
				C31.3,154.2,29,156.7,27,155.7z"/>
			<path class="st4" d="M177.6,143c-0.3-3.8-0.2-7.7,0.4-11.5c0-0.2-0.1-0.3-0.2-0.4c-0.1,0-0.3,0.1-0.3,0.2
				c-3.5,9.2-3.7,18.3,4.3,24.9c0.5,0.4,1.3,0.4,1.7-0.1c0,0,0,0,0,0c0.4-0.5,0.4-1.1,0-1.6C180.5,150.8,178,148,177.6,143z"/>
			<path class="st4" d="M280.2,93.8c0.4-0.3-0.1-0.9-0.5-0.6c-4.8,2.6-9.5,8.5-8.2,14.3c0.2,0.6,0.8,0.9,1.4,0.8
				c0.4-0.1,0.6-0.4,0.8-0.8c0.7-2.6,0.8-5,2-7.4C276.7,97.7,278.3,95.6,280.2,93.8z"/>
			<path class="st4" d="M225.8,95.6c0.4-0.3-0.1-0.9-0.5-0.6c-4.8,2.6-9.5,8.5-8.2,14.3c0.2,0.6,0.8,0.9,1.4,0.8
				c0.4-0.1,0.6-0.4,0.8-0.8c0.7-2.6,0.8-4.9,2-7.4C222.3,99.5,223.9,97.4,225.8,95.6z"/>
			<path class="st4" d="M311.9,93.3l-1.1,0.7c-4.4,2.9-8.3,8.3-7,13.6c0.2,0.6,0.8,0.9,1.4,0.8c0,0,0,0,0,0c0.4-0.1,0.7-0.4,0.8-0.8
				c0.7-2.5,0.8-4.9,2-7.4c0.8-1.7,1.8-3.3,3-4.7c0.5-0.6,1-1.1,1.6-1.6C312.8,93.6,312.3,93.1,311.9,93.3z"/>
			<path class="st4" d="M338.6,154.6c1.4,0.8,2.4-1.2,1.2-2.1c-5.3-3.7-8-10.2-6.8-16.6c0-0.2-0.1-0.5-0.4-0.5c0,0,0,0,0,0
				c-0.2,0-0.4,0.1-0.5,0.3C329.3,142.8,332.1,150.8,338.6,154.6z"/>
			<path class="st4" d="M372.3,136.4l-4.3-4.8c-1.1-1.2-2.5-2.1-4.1-2.5c1.7-1.4,3.2-3,4.4-4.8c1.5-2.2,2.8-4.6,3.7-7.2
				c1.1-2.8,1.6-5.7,1.6-8.7c0-3.5-1-6.8-3-9.7c-1.7-2.6-4-4.8-6.6-6.5c-2.5-1.6-5.1-2.9-7.9-3.8c-3.1-1-6.3-1.5-9.5-1.5
				c-7.4,0-12.2,6.6-13.8,8.7c-1.7,2.4-3.3,4.9-4.6,7.4c0.3-1.3,0.3-2.6,0.1-3.8c-0.5-2.9-1.9-5.5-4.1-7.4c-2-1.8-4.3-3.1-6.8-3.9
				c-0.6-0.2-1.2-0.4-1.9-0.5c-3-22.4-13.7-43-30.3-58.3c-28.1-26-68.1-32.8-104.3-17.9c-16.6,6.7-31.1,17.8-42,32
				c-0.1-0.6-0.3-1.2-0.5-1.8c-0.1-0.3-0.2-0.7-0.3-1c-0.2-0.5-0.4-0.9-0.6-1.4c-3.7-8.7-9.6-17.6-19.2-20.3
				c-4.4-1.2-8.9-0.5-13.4-0.4c-5,0.1-10,0-15-0.4c-9.2-0.8-18.4-2.6-27.2-5.4c-4.4-1.4-8.6-3.1-12.8-5.2C45.5,5.3,40.5,1,35.3,0.2
				C24.5-1.5,23.1,9.2,22.1,17c-0.9,6.7-1.3,13.4-1.1,20.1c0.4,8.3,2.4,14.9,9.1,20.2c4.9,3.8,10.5,6.7,16.4,8.5
				c9.7,3.1,19.8,3.8,30.1,3.6c-4.4,3.9-9.1,7.8-13.3,11C57,85.1,50.5,89.5,44,93.9c-9,6-18.9,11.3-26.9,18.6
				c-10.4,9.5-16.6,23.2-14.3,37.3c1.4,8.9,6.5,16.4,13.4,22c4.2,3.4,8.6,6.3,14.2,4c4.9-2,8.7-6.1,13.8-7.9
				c10.3-3.8,20.5,5.3,29.2,9.4c11.1,5.2,24.2,7.4,34.9-0.1l-0.1-0.1c0.6-0.4,1.3-0.8,1.8-1.2c4.5-3.6,8.2-8.2,10.7-13.4
				c3.7,3.3,7.9,6.1,12.4,8.1c6,14.3,14,27.7,23.6,39.8c26.6,33.3,63.3,53.1,103.4,55.6h0.5c4.3,0,7.7-3.4,7.8-7.7
				c0-2.1-0.9-4.2-2.4-5.6c-13-12.3-21.8-32.3-24.1-54.3c19.4-4.8,36.8-15.4,49.8-30.5c1.3,1.3,2.8,2.4,4.3,3.3
				c3.2,1.9,6.8,3,10.5,2.9c3.6-0.1,7.1-1.5,9.8-3.9c2.2-2,4.3-4.2,6-6.6c0.3-0.3,0.5-0.7,0.7-1c0.4,0.5,0.9,1,1.3,1.4
				c3,3,6.6,5.5,10.5,7.2c4.8,2.1,10.1,3.1,15.4,3c3.3,0,6.4-1.6,9.3-4.9c1.7-2,3.3-4.2,4.7-6.5c1.5-2.4,3.1-5.3,4.8-8.4
				s3.1-6,4.5-9.1C375,142.5,374.5,138.9,372.3,136.4z M325.1,108.8l0.2-0.2l0.6-0.6c-0.4,0.8-0.8,1.7-1.1,2.6c-1,2.4-2,4.9-2.9,7.6
				c-1.6,3.4-3.2,6.7-4.7,9.7c0.4-1.4,0.8-2.7,1.2-4c1.1-3.5,2.3-6.9,3.8-10.2C323.6,110.4,324.7,109.2,325.1,108.8z M282.2,32.7
				c15.5,14.2,25.4,33.4,28,54.3h-1.3c-3.1,0-6.1,1.1-8.5,3c-1.9,1.5-3.5,3.2-4.8,5.2l-0.3,0.5c-0.7-1.4-1.7-2.7-2.9-3.8
				c-2-1.8-4.3-3.2-6.8-4c-2.8-0.9-5.7-1.3-8.6-1.2c-2.9,0-7.1,1-11.2,5.6c-0.5,0.5-0.9,1.1-1.4,1.7c-1.7-1.6-3.6-3-5.6-4.1
				c-2.4-1.3-5-2.3-7.6-3c-2.4-0.6-4.9-1-7.4-1c-2.1,0-4.1,0.6-5.9,1.7c0-0.2,0.1-0.3,0.1-0.5c0.5-2.7,0.3-5.6-0.6-8.2
				c-1-2.9-2.7-5.4-5-7.5c-2.7-2.4-6.2-3.8-9.9-3.9c1.7-2.7,3.5-5.3,5.3-7.6c2.1-2.4,3-5.5,2.6-8.6c-0.5-2.9-1.9-5.5-4.1-7.4
				c-2-1.8-4.3-3.1-6.8-3.9c-2.8-0.8-5.7-1.2-8.6-1.1c-3.4,0-6.6,1.5-9.8,4.8c-2.3,2.3-4.3,4.9-6.1,7.7c-2.2,3.3-4.2,6.8-6,10.3
				c-1.3,2.4-2.5,4.9-3.8,7.6c-3,0-6.1-0.2-9.1-0.6c-0.9-0.1-1.8-0.3-2.6-0.5c-1.5-1.3-3.4-2-5.3-2c-5,0-8.9,3.3-10.1,8.4
				c-0.6,2.7-0.5,5.6,0.3,8.3c0.8,2.9,2.2,5.6,4.2,7.8c2.7,3.1,6.7,4.8,10.8,4.7h0.5c-0.6,1.5-1.1,3.1-1.7,4.6
				c-0.8,2.2-1.5,4.4-2.2,6.5c-5.4-12.8-17.9-21.2-31.8-21.2h-1.5c-2.2,0.1-4.3,0.4-6.4,0.8C140.9,16.8,228.4-17,282.2,32.7z
				 M243.6,103c-1.6,2.5-3,5-4.2,7.7c-1.5,3.1-3,6.4-4.6,10.1c-1.6,3.7-3.1,7.4-4.5,11.2c-3.4,8.9-6.9,18.9-10.5,30H219
				c-2.3,0-4.6-0.6-6.6-1.9c-2-1.3-3.7-2.9-5.1-4.9c-2.4-3.6-3.9-7.7-4.2-12c-0.7,1.3-1.4,2.6-2.1,3.9c-1.4,2.5-3,5-4.7,7.3
				c-1.4,1.9-3,3.7-4.7,5.2c-1.2,1.2-2.8,1.9-4.4,2c-2.3,0-4.6-0.6-6.6-1.9c-2-1.3-3.7-2.9-5.1-4.9c-1.4-2-2.4-4.2-3.1-6.5
				c-0.7-2.2-1.1-4.5-1.1-6.8c0.1-3.8,0.5-7.6,1.4-11.4c0.9-4.4,2.1-9.3,3.7-14.4c1.6-5.2,3.3-10.6,5.3-16.2c2-5.6,4.1-11,6.4-16.3
				c-3,0.2-5.6,0.4-7.9,0.5c-2.3,0.1-4,0.2-5,0.2c-1.8,0.1-3.5-0.7-4.7-2c-1.2-1.2-2-2.7-2.4-4.3c-0.4-1.4-0.5-2.9-0.2-4.3
				c0.3-1.3,1-2,2.1-2c1.2,1.2,3.5,2,7,2.4c3.9,0.4,7.9,0.7,11.8,0.6h3.4c2.1-4.3,4.1-8.3,6-12c1.7-3.3,3.5-6.5,5.5-9.5
				c1.5-2.3,3.2-4.4,5.1-6.4c1.6-1.6,2.9-2.3,4-2.3c2,0,4.1,0.2,6.1,0.8c1.4,0.4,2.7,1.1,3.8,2.1c0.8,0.6,1.3,1.5,1.5,2.5
				c0.1,0.8-0.1,1.6-0.7,2.2c-2.5,3.3-4.8,6.7-6.9,10.2c-2.2,3.7-4.4,7.6-6.4,11.8c3.1-0.2,5.9-0.4,8.5-0.5s4.4-0.2,5.8-0.2
				l-0.5-0.2c1.8-0.1,3.6,0.6,5,1.8c1.2,1.1,2.2,2.5,2.7,4c0.5,1.3,0.6,2.7,0.4,4c-0.2,1.2-0.8,1.8-1.8,1.8
				c-0.7-0.7-2.6-1.2-5.5-1.5s-6.5-0.4-10.6-0.4h-4.2c-1.4,0-3,0.1-4.5,0.2c-3.7,8.2-7.1,16.5-10,24.9c-2.7,7.5-4.9,15.2-6.8,22.9
				c-1.4,5.5-2.1,11-2.2,16.7c0.1,4.3,1.1,6.5,3.2,6.5c0.6,0,1.3-0.5,2.3-1.6c1.1-1.4,2.1-2.8,3-4.3c1.1-1.8,2.3-3.9,3.6-6.1
				s2.6-4.6,3.8-7c1.6-3,3.2-6.3,5-9.8c0.9-3.2,1.9-6.5,3.1-9.9c1.3-3.9,2.7-7.7,4.4-11.4c1.3-3,3-5.9,5-8.6
				c1.8-2.3,3.6-3.4,5.2-3.4c2,0,4.1,0.2,6,0.8c1.4,0.4,2.7,1.1,3.8,2.1c0.8,0.6,1.3,1.5,1.5,2.5c0.1,0.8-0.1,1.6-0.7,2.2
				c-1.8,1.9-3.3,4.1-4.4,6.5c-1.7,3.2-3.1,6.5-4.4,9.8c-1.5,3.7-2.8,7.5-4.1,11.6c-1.3,4.1-2.3,8.1-3.2,11.9
				c1.7-4.3,3.7-9.3,5.9-14.8c2.3-5.5,4.7-10.7,7.1-15.6c2.1-4.3,4.5-8.4,7.2-12.3c2.3-3.3,4.3-5,6-5c1.9,0,3.7,0.3,5.5,0.7
				c2,0.5,3.8,1.2,5.6,2.2c1.6,0.9,3.1,2,4.4,3.3c0.2,0.2,0.4,0.4,0.5,0.6c0.8,1.1,1.3,2.4,1.3,3.8c-0.2,4.8-7.1,18.1-10.6,24
				c-0.6,1-1.1,1.8-1.5,2.3c-2.3,3.2-6.5,1.6-8.6,0.5c-2.1-1.2-3.4-3.5-3.3-6c0-2.6,0.4-5.3,1.2-7.8c0.8-2.6,1.7-5.1,2.9-7.6
				c1.1-2.8,2.4-5.5,4-8.1C246.1,99.7,244.9,101,243.6,103z M210.4,93.7c-2.1,2.9-3.9,6.1-5.4,9.4c-0.6,1.3-1.2,2.7-1.8,4.1
				c1.7-4.5,3.5-9,5.5-13.5L210.4,93.7z M114.8,151.9c-0.2,1.1-0.5,2.1-0.9,3.2c-0.6,1.3-1.3,2.6-2.1,3.8c-1.4,2-3,3.9-4.9,5.5
				c-0.6,0.5-1.2,1-1.8,1.5l0.2-0.2c-4.8,3.7-11.2,4.3-17,3c-6.1-1.4-11.8-4.8-17.4-7.9s-11.5-6.1-17.7-6.7
				c-9.3-0.9-16.7,4.3-24.8,9.7c-0.3,0.2-0.6,0.2-0.8,0c-3-2.1-5.8-4.6-8.2-7.3c-3.4-4.2-5.3-9.4-5.6-14.9
				c-0.2-3.6,0.3-18.5,19-30.6c34.7-22.5,45.7-30.2,64.5-49.2c1.8-1.8,3.4-3.6,4.9-5.6c0.2-0.3,0.2-0.8-0.2-1
				c-0.1-0.1-0.3-0.2-0.5-0.1c-3,0.3-9.7,0.9-16.1,1.3c-23.8,1.4-35-2.7-40.5-5.4s-9.5-5.7-11.1-9C31.3,34.4,33.7,13,35,7.2
				c0.1-0.4,0.4-0.6,0.8-0.6c0.1,0,0.2,0.1,0.3,0.1C47.9,14.3,61,19.6,74.7,22.4c13.5,2.8,27.4,3.7,41.2,2.6h0.1
				c2.1,0.2,4,1,5.7,2.2c2.1,1.5,3.9,3.4,5.4,5.5c1.7,2.3,3,4.9,4,7.5c1,2.7,1.5,5.5,1.4,8.4c-0.1,1.4-1.6,3.9-4.6,7.5
				c-3,3.6-7,7.9-11.8,12.9c-4.8,5-10.3,10.5-16.5,16.3C87.2,97.1,69,112,64.1,116.4c-13.4,11.9-19.6,19-22.2,22.8
				c-0.2,0.3-0.2,0.8,0.1,1c0.3,0.2,0.7,0.2,0.9,0c2.1-1.7,4.3-3.2,6.6-4.6c3.6-2.3,8.8-4,15.9-3.4c3.6,0.3,7,1.3,10.2,3.1
				c3.8,2.1,7.5,4.4,11,6.9c3.6,2.5,7,4.8,10.1,6.9s5.6,3,7.3,3.1c2.4,0.1,4.8-0.4,6.9-1.5c0.7-0.4,1.4-0.9,1.9-1.5
				c0.2-0.2,0.5-0.4,0.8-0.3C114.7,149,115.1,150,114.8,151.9L114.8,151.9z M107,143.2c0.2,0.5,0.4,1,0.7,1.5
				c-0.7,0.9-2.1,2-5.6,0.6c-1.9-1-3.6-2.1-5.3-3.4c-8.8-5.9-17.4-13.1-27.8-15.5c7.6-6.8,15.6-13.2,23.3-20
				c10.5-9.2,20.6-19,30.3-29.1c-1.1,4.2-2,8.4-2.5,12.7c-2.1,1.2-4.1,2.7-6,4.3c-7,6.2-11.3,14.9-11.8,24.3v0.5
				C102,127.3,103.6,135.6,107,143.2L107,143.2z M126.3,151.3c-9.1-9.4-14-22-13.8-35.1l0,0c0.2-6.1,2.6-12,6.8-16.6
				c2.8-3.1,6.2-5.5,10-7.1c2-0.8,4.1-1.4,6.2-1.8c14.3-2.5,27.9,7.2,30.4,21.5c0.3,1.7,0.4,3.5,0.4,5.3c-0.1,4.3-1.2,8.5-3.2,12.3
				c-3.8,7.4-10.8,12.6-19,14c0.4,8.1,3.4,15.2,8,19.5c-4-0.3-7.9-1.1-11.6-2.6C135.1,158.7,130.3,155.4,126.3,151.3L126.3,151.3z
				 M235.7,190c1.4,27.4,11.7,51.4,27,66c-52.4-3.3-94.1-37.2-116.3-81.7c1,0.1,2,0.2,2.9,0.3h0.5c0.7,0,1.3-0.1,2-0.3
				c4.4-1.1,7.1-5.5,6-9.9c-0.4-1.5-1.2-2.9-2.3-4c-2.1-2.2-3.6-4.8-4.4-7.8c3.7-1.6,7.1-3.8,10-6.6c0.3,5.9,2.3,11.7,5.7,16.5
				c2,2.8,4.5,5.2,7.4,7.1c3.3,2.1,7.1,3.2,11,3.2c3.7-0.1,7.2-1.5,9.9-4c1.6-1.4,3.1-3,4.4-4.7c1.8,2.3,4,4.3,6.5,5.9
				c3.3,2.1,7.1,3.2,11,3.2h0.7c3.6,0,6.7-2.3,7.8-5.7c3.5-10.7,6.9-20.5,10.2-29.1c0.2,0.1,0.4,0.3,0.6,0.4l0.2,0.1
				c2.6,1.5,5.6,2.3,8.6,2.3c1.8,0,3.6-0.4,5.2-1.1c-0.1,1.6-0.2,3.2-0.2,4.7c-0.1,3.4,0.3,6.8,1.2,10.1c1,3.1,2.4,6.1,4.3,8.8
				c2,2.8,4.5,5.3,7.4,7.1c0.5,0.3,0.9,0.6,1.4,0.8c2.7,1.4,5.8,2.2,8.8,2.3C262.2,182.3,249.3,187.7,235.7,190z M363.8,146.7
				c-1.5,2.9-3,5.4-4.5,7.7c-1.2,1.9-2.5,3.8-4,5.5c-1.2,1.4-2.2,2.1-3.1,2.1c-4.1,0.1-8.1-0.6-11.9-2.3c-3-1.3-5.7-3.2-8-5.5
				c-2-1.9-3.5-4.2-4.5-6.8c-0.8-1.9-1.3-4-1.4-6.1v-1.7c-1.3,2.6-2.6,5.1-4,7.6c-1.4,2.5-3,5-4.7,7.3c-1.4,1.9-3,3.7-4.8,5.2
				c-1.2,1.2-2.8,1.9-4.5,2c-2.2,0-4.3-0.6-6.2-1.7c-1.1-0.7-2.1-1.4-3-2.3c-0.7-0.6-1.3-1.3-1.9-2c-1-1.3-1.9-2.8-2.6-4.3
				c-0.2-0.5-0.4-1-0.6-1.6c-0.8-2-1.3-4.2-1.5-6.3c-1.1,2.4-2.2,4.7-3.4,7c-1.1,2.1-2.4,4-3.9,5.9c-1.2,1.6-2.7,2.9-4.4,4
				c-1.4,0.9-2.9,1.4-4.5,1.4H276c-2.3,0-4.6-0.6-6.6-1.9c-2-1.3-3.7-2.9-5-4.9c-1.4-2-2.5-4.2-3.2-6.5c-0.6-2.5-0.9-5.1-0.8-7.7
				c0.1-5.7,0.8-11.3,2-16.8c0.8-3.9,1.5-7,1.8-8c0.6-2.3,0.9-3.4,1.4-5c0.9-3,2-5.9,3.2-8.8c0.2-0.4,0.4-0.8,0.6-1.3
				c1.1-2.6,2.6-5.1,4.5-7.3c1.6-1.9,3.3-2.8,5-2.8c2,0,4.1,0.2,6,0.8c1.4,0.4,2.7,1.1,3.8,2.1c0.8,0.6,1.3,1.4,1.5,2.4
				c0.1,0.8-0.1,1.6-0.7,2.2c-2,2.1-3.7,4.5-4.9,7.2c-1.7,3.5-3.1,7.1-4.2,10.7c-1.3,3.9-2.3,7.9-3.3,12.1
				c-0.8,3.7-1.4,7.5-1.8,11.4c-0.3,2.8-0.3,5.6,0.1,8.4c0.4,2.2,1.2,3.3,2.5,3.3c1.1,0,2.3-0.9,3.6-2.8c1.6-2.3,3-4.7,4.1-7.2
				c1.4-2.9,2.9-6.2,4.3-9.7c1.4-3.6,2.8-7,4-10.3c1.2-3.3,2.2-6.3,3.1-8.9s1.4-4.5,1.8-5.5c0.7-1.8,1.4-3.5,2.1-5.1
				c1-2.2,2.1-4.3,3.4-6.3c1.9-2.9,3.9-4.4,6.1-4.5h0.3c1.7,0,3.5,0.2,5.2,0.6c0.3,0.1,0.6,0.1,0.9,0.2c1.4,0.4,2.7,1.1,3.8,2
				c0.8,0.6,1.3,1.5,1.6,2.5c0.1,0.8-0.1,1.6-0.7,2.2c-2.1,2.1-3.7,4.6-4.9,7.4c-0.1,0.2-0.2,0.5-0.3,0.7c-1.5,3.4-2.8,6.9-3.9,10.4
				c-1.3,4.1-2.4,8.3-3.3,12.6c-0.8,3.9-1.5,7.9-1.8,11.9c0,0.6-0.1,1.2-0.1,1.8c-0.2,2.4-0.1,4.7,0.2,7.1c0.4,2.3,1.2,3.4,2.5,3.4
				c0.6,0,1.4-0.5,2.3-1.6c1.1-1.4,2.1-2.8,3-4.3c1.1-1.8,2.3-3.8,3.6-6.1s2.6-4.6,3.8-7c2.7-5.2,5.7-11.2,8.8-17.8
				c0.9-2.6,1.8-5,2.9-7.5c1.9-4.6,4.3-9,7.2-13.1c2.6-3.5,5-5.3,7.1-5.3c2.4,0,4.7,0.4,7,1.1c2.1,0.7,4.1,1.6,6,2.8
				c1.7,1.1,3.1,2.5,4.2,4.2c1,1.5,1.6,3.3,1.6,5.1c0,2-0.4,3.9-1.1,5.8c-0.7,1.9-1.6,3.7-2.8,5.3c-1.1,1.6-2.4,2.9-4,4
				c-1.3,1-2.9,1.5-4.6,1.5c-1.9,0-3.6-0.8-4.9-2.2c1,0,2.1-1,3.5-2.9c1.4-2,2.7-4.1,3.7-6.3c1-2,1.7-4.1,2-6.3
				c0.2-1.9-0.3-2.9-1.6-2.9c-1.6,0-3.3,1.3-5.1,3.8c-2,3-3.8,6.1-5.1,9.5c-1.7,4-3.1,8.1-4.1,12.4c-1.1,4-1.8,8.2-2.2,12.4
				c-0.4,3.2-0.1,6.4,0.7,9.5c0.8,2.5,2.3,3.8,4.6,3.8c1.6-0.1,3.2-0.7,4.4-1.8c1.7-1.4,3.3-2.9,4.7-4.6c1.8-2,3.4-4.2,4.8-6.5
				c0.9-1.5,2.6-4.3,3.5-5.8l4.3,4.8C366.8,140.8,365.3,143.8,363.8,146.7L363.8,146.7z M354.6,133.3l-0.5,0.9
				c-0.8,1.4-2,3.3-2.6,4.3c-1.2,1.9-2.5,3.8-4,5.5l-0.1,0.1c0-0.3,0-0.6,0.1-0.9c0.3-3.5,0.9-7,1.8-10.4
				C350.9,133.4,352.8,133.5,354.6,133.3L354.6,133.3z"/>
			<path class="st4" d="M123.3,136.9c-0.7-2.2-1.4-4.4-1.9-6.5c-1-3.9-1.5-8-1.6-12.1c0-2.3,0.1-4.7,0.5-7c0.1-0.7-0.3-1.3-1-1.4
				c0,0,0,0,0,0l0,0c-0.6-0.1-1.1,0.3-1.3,0.8c-2.7,7.5-1,20.6,4.5,26.7c0.1,0.1,0.1,0.1,0.2,0.1c0.3,0,0.5-0.1,0.5-0.4c0,0,0,0,0,0
				C123.4,137,123.4,136.9,123.3,136.9z"/>
			<path class="st4" d="M25.2,135.9c0.7-0.8-0.4-1.9-1.1-1.1c-2.9,3.2-4.8,6.4-4.1,10.9c0.6,4.3,3.2,8,7.1,10.1
				c1.9,1,4.3-1.6,2.5-3.2C25,148.6,20.3,141.7,25.2,135.9z"/>
			<path class="st4" d="M61.2,44.4c-2.8-0.1-5.5-0.6-8.1-1.7c-2.5-1.2-4.4-3-6.7-4.4c-0.9-0.5-1.7,0.7-1.3,1.4
				c3.3,5.7,9.7,8.8,16.2,7.9c0.9,0,1.6-0.8,1.6-1.7C62.9,45,62.1,44.3,61.2,44.4z"/>
			<path class="st4" d="M278,2.3c21.1,11.3,37.5,29.9,42.8,53.7c0.8,3.7,6.6,2.2,5.8-1.6c-5.7-24.1-23.8-46.1-48.1-53.1
				c-0.3-0.1-0.6,0.1-0.7,0.4c0,0,0,0,0,0C277.7,1.9,277.8,2.2,278,2.3z"/>
			<path class="st4" d="M162,239.9c-3.7-3.2-7.2-6.7-10.5-10.3c-6.8-7.4-13.5-15.9-17.9-25c-0.4-0.8-1.8-0.2-1.5,0.6
				c4.2,9.9,8.5,19,15.3,27.5c3.5,4.4,7.4,8.4,11.6,12c3.3,2.9,7.5,7.3,12,7.9c1.8,0.2,2.7-2,2-3.4
				C170.9,245.4,165.4,242.9,162,239.9z"/>
			<g>
				<g>
					<path class="st4" d="M13.8,197.9H7.3l-1.3,3H2.7L9,186.8h3.2l6.3,14.1h-3.5L13.8,197.9z M12.8,195.4l-2.3-5.4l-2.2,5.4
						L12.8,195.4z"/>
				</g>
				<g>
					<path class="st5" d="M13.8,197.9H7.3l-1.3,3H2.7L9,186.8h3.2l6.3,14.1h-3.5L13.8,197.9z M12.8,195.4l-2.3-5.4l-2.2,5.4
						L12.8,195.4z"/>
				</g>
				<g>
					<path class="st4" d="M30.8,190.1v9c0,4-2.2,5.9-6.1,5.9c-1.9,0.1-3.7-0.4-5.3-1.5l1.3-2.3c1.1,0.8,2.5,1.2,3.8,1.2
						c2.2,0,3.2-1,3.2-3V199c-0.9,0.9-2.1,1.4-3.4,1.4c-2.9,0-5.2-2.3-5.2-5.2c0-2.9,2.3-5.2,5.2-5.2c0,0,0,0,0,0
						c1.4-0.1,2.7,0.5,3.6,1.6V190L30.8,190.1z M27.7,195.1c0-1.5-1.1-2.6-2.6-2.7c-0.1,0-0.2,0-0.2,0c-1.5-0.1-2.8,1-2.9,2.4
						c-0.1,1.5,1,2.8,2.4,2.9c0.2,0,0.3,0,0.5,0c1.4,0.1,2.7-1,2.8-2.4C27.7,195.3,27.7,195.2,27.7,195.1z"/>
					<path class="st4" d="M44.3,196.4h-8.2c0.4,1.4,1.7,2.3,3.1,2.2c1,0,2-0.3,2.7-1l1.7,1.8c-1.2,1.2-2.8,1.9-4.5,1.8
						c-3.7,0-6.2-2.4-6.2-5.6c0-3,2.4-5.5,5.5-5.6c0.1,0,0.2,0,0.3,0c3-0.2,5.5,2.1,5.6,5.1c0,0.2,0,0.4,0,0.5
						C44.4,195.8,44.3,196.1,44.3,196.4z M36.1,194.5h5.3c-0.3-1.5-1.7-2.5-3.1-2.2C37.1,192.5,36.3,193.4,36.1,194.5z"/>
				</g>
				<g>
					<path class="st5" d="M30.8,190.1v9c0,4-2.2,5.9-6.1,5.9c-1.9,0.1-3.7-0.4-5.3-1.5l1.3-2.3c1.1,0.8,2.5,1.2,3.8,1.2
						c2.2,0,3.2-1,3.2-3V199c-0.9,0.9-2.1,1.4-3.4,1.4c-2.9,0-5.2-2.3-5.2-5.2c0-2.9,2.3-5.2,5.2-5.2c0,0,0,0,0,0
						c1.4-0.1,2.7,0.5,3.6,1.6V190L30.8,190.1z M27.7,195.1c0-1.5-1.1-2.6-2.6-2.7c-0.1,0-0.2,0-0.2,0c-1.5-0.1-2.8,1-2.9,2.4
						c-0.1,1.5,1,2.8,2.4,2.9c0.2,0,0.3,0,0.5,0c1.4,0.1,2.7-1,2.8-2.4C27.7,195.3,27.7,195.2,27.7,195.1z"/>
					<path class="st5" d="M44.3,196.4h-8.2c0.4,1.4,1.7,2.3,3.1,2.2c1,0,2-0.3,2.7-1l1.7,1.8c-1.2,1.2-2.8,1.9-4.5,1.8
						c-3.7,0-6.2-2.4-6.2-5.6c0-3,2.4-5.5,5.5-5.6c0.1,0,0.2,0,0.3,0c3-0.2,5.5,2.1,5.6,5.1c0,0.2,0,0.4,0,0.5
						C44.4,195.8,44.3,196.1,44.3,196.4z M36.1,194.5h5.3c-0.3-1.5-1.7-2.5-3.1-2.2C37.1,192.5,36.3,193.4,36.1,194.5z"/>
				</g>
				<g>
					<path class="st4" d="M57.5,194.7v6.2h-3.1v-5.7c0-1.8-0.8-2.6-2.2-2.6s-2.6,0.9-2.6,2.9v5.4h-3.1v-10.8h3v1.3
						c0.9-1,2.2-1.5,3.6-1.4C55.6,189.9,57.5,191.4,57.5,194.7z"/>
				</g>
				<g>
					<path class="st5" d="M57.5,194.7v6.2h-3.1v-5.7c0-1.8-0.8-2.6-2.2-2.6s-2.6,0.9-2.6,2.9v5.4h-3.1v-10.8h3v1.3
						c0.9-1,2.2-1.5,3.6-1.4C55.6,189.9,57.5,191.4,57.5,194.7z"/>
				</g>
				<g>
					<path class="st4" d="M59.7,195.5c0-3.3,2.5-5.6,6-5.6c2-0.2,4,0.9,4.9,2.8l-2.4,1.3c-0.5-0.9-1.4-1.5-2.4-1.5c-1.7,0-3,1.3-3,3
						s1.3,3,3,3c1,0,2-0.6,2.4-1.5l2.4,1.3c-0.9,1.8-2.8,2.9-4.9,2.7C62.2,201.1,59.7,198.8,59.7,195.5z"/>
				</g>
				<g>
					<path class="st5" d="M59.7,195.5c0-3.3,2.5-5.6,6-5.6c2-0.2,4,0.9,4.9,2.8l-2.4,1.3c-0.5-0.9-1.4-1.5-2.4-1.5c-1.7,0-3,1.3-3,3
						s1.3,3,3,3c1,0,2-0.6,2.4-1.5l2.4,1.3c-0.9,1.8-2.8,2.9-4.9,2.7C62.2,201.1,59.7,198.8,59.7,195.5z"/>
				</g>
				<g>
					<path class="st4" d="M82.8,196.4h-8.2c0.3,1.4,1.7,2.3,3.1,2.2c1,0.1,2-0.3,2.7-1l1.7,1.8c-1.2,1.2-2.8,1.9-4.5,1.8
						c-3.8,0-6.2-2.4-6.2-5.6c0-3,2.4-5.5,5.5-5.6c0.1,0,0.2,0,0.3,0c3-0.2,5.5,2.1,5.6,5.1c0,0.2,0,0.4,0,0.6
						C82.9,195.8,82.9,196.1,82.8,196.4z M74.6,194.5h5.3c-0.3-1.5-1.7-2.5-3.1-2.2C75.7,192.5,74.8,193.4,74.6,194.5z"/>
					<path class="st4" d="M101.7,186v15h-3v-1.3c-0.9,1-2.1,1.5-3.4,1.4c-3.1,0-5.6-2.5-5.6-5.6s2.5-5.6,5.6-5.6l0,0
						c1.2-0.1,2.4,0.4,3.3,1.3V186H101.7z M98.7,195.5c-0.1-1.5-1.5-2.7-3-2.6c-1.5,0.1-2.7,1.5-2.6,3c0.1,1.4,1.3,2.6,2.8,2.6
						c1.5,0,2.8-1.2,2.8-2.7C98.7,195.7,98.7,195.6,98.7,195.5L98.7,195.5z"/>
					<path class="st4" d="M115.2,196.4H107c0.3,1.4,1.7,2.3,3.1,2.2c1,0.1,2-0.3,2.7-1l1.7,1.8c-1.2,1.2-2.8,1.9-4.5,1.8
						c-3.8,0-6.2-2.4-6.2-5.6c0-3,2.4-5.5,5.5-5.6c0.1,0,0.2,0,0.3,0c3-0.2,5.5,2.1,5.6,5.1c0,0.2,0,0.4,0,0.6
						C115.3,195.8,115.2,196.1,115.2,196.4z M107,194.5h5.3c-0.3-1.5-1.7-2.5-3.1-2.2C108.1,192.5,107.2,193.4,107,194.5z"/>
				</g>
				<g>
					<path class="st5" d="M82.8,196.4h-8.2c0.3,1.4,1.7,2.3,3.1,2.2c1,0.1,2-0.3,2.7-1l1.7,1.8c-1.2,1.2-2.8,1.9-4.5,1.8
						c-3.8,0-6.2-2.4-6.2-5.6c0-3,2.4-5.5,5.5-5.6c0.1,0,0.2,0,0.3,0c3-0.2,5.5,2.1,5.6,5.1c0,0.2,0,0.4,0,0.6
						C82.9,195.8,82.9,196.1,82.8,196.4z M74.6,194.5h5.3c-0.3-1.5-1.7-2.5-3.1-2.2C75.7,192.5,74.8,193.4,74.6,194.5z"/>
					<path class="st5" d="M101.7,186v15h-3v-1.3c-0.9,1-2.1,1.5-3.4,1.4c-3.1,0-5.6-2.5-5.6-5.6s2.5-5.6,5.6-5.6l0,0
						c1.2-0.1,2.4,0.4,3.3,1.3V186H101.7z M98.7,195.5c-0.1-1.5-1.5-2.7-3-2.6c-1.5,0.1-2.7,1.5-2.6,3c0.1,1.4,1.3,2.6,2.8,2.6
						c1.5,0,2.8-1.2,2.8-2.7C98.7,195.7,98.7,195.6,98.7,195.5L98.7,195.5z"/>
					<path class="st5" d="M115.2,196.4H107c0.3,1.4,1.7,2.3,3.1,2.2c1,0.1,2-0.3,2.7-1l1.7,1.8c-1.2,1.2-2.8,1.9-4.5,1.8
						c-3.8,0-6.2-2.4-6.2-5.6c0-3,2.4-5.5,5.5-5.6c0.1,0,0.2,0,0.3,0c3-0.2,5.5,2.1,5.6,5.1c0,0.2,0,0.4,0,0.6
						C115.3,195.8,115.2,196.1,115.2,196.4z M107,194.5h5.3c-0.3-1.5-1.7-2.5-3.1-2.2C108.1,192.5,107.2,193.4,107,194.5z"/>
				</g>
				<g>
					<path class="st4" d="M122.3,195.5c0-3.3,2.5-5.6,6.1-5.6c2-0.2,4,0.9,4.9,2.8l-2.4,1.3c-0.5-0.9-1.4-1.5-2.4-1.5
						c-1.7,0-3,1.3-3,3s1.3,3,3,3c1,0,2-0.6,2.4-1.5l2.4,1.3c-0.9,1.8-2.8,2.9-4.9,2.7C124.8,201.1,122.3,198.8,122.3,195.5z"/>
				</g>
				<g>
					<path class="st5" d="M122.3,195.5c0-3.3,2.5-5.6,6.1-5.6c2-0.2,4,0.9,4.9,2.8l-2.4,1.3c-0.5-0.9-1.4-1.5-2.4-1.5
						c-1.7,0-3,1.3-3,3s1.3,3,3,3c1,0,2-0.6,2.4-1.5l2.4,1.3c-0.9,1.8-2.8,2.9-4.9,2.7C124.8,201.1,122.3,198.8,122.3,195.5z"/>
				</g>
				<g>
					<path class="st4" d="M134,195.5c0-3.3,2.5-5.6,6-5.6s5.9,2.3,5.9,5.6s-2.5,5.6-5.9,5.6S134,198.8,134,195.5z M142.7,195.5
						c-0.1-1.5-1.5-2.7-3-2.6c-1.5,0.1-2.7,1.5-2.6,3c0.1,1.4,1.3,2.6,2.8,2.6c1.5,0,2.8-1.2,2.8-2.7
						C142.8,195.7,142.8,195.6,142.7,195.5L142.7,195.5z"/>
					<path class="st4" d="M166.4,194.7v6.2h-3.2v-5.7c0-1.8-0.8-2.6-2-2.6s-2.4,0.9-2.4,2.8v5.4h-3.2v-5.7c0-1.8-0.7-2.6-2-2.6
						s-2.4,0.9-2.4,2.8v5.4H148v-10.8h3v1.3c0.9-0.9,2.1-1.5,3.4-1.4c1.4-0.1,2.8,0.6,3.6,1.8c1-1.2,2.4-1.8,3.9-1.8
						C164.5,189.9,166.4,191.4,166.4,194.7z"/>
					<path class="st4" d="M187.5,194.7v6.2h-3.1v-5.7c0-1.8-0.8-2.6-2.1-2.6s-2.4,0.9-2.4,2.8v5.4h-3.1v-5.7c0-1.8-0.7-2.6-2.1-2.6
						s-2.4,0.9-2.4,2.8v5.4h-3.1v-10.8h3v1.3c0.9-0.9,2.1-1.5,3.4-1.4c1.4-0.1,2.8,0.6,3.6,1.8c1-1.2,2.4-1.8,3.9-1.8
						C185.6,189.9,187.5,191.4,187.5,194.7z"/>
					<path class="st4" d="M201.2,190.1v10.8h-3v-1.3c-0.9,1-2.1,1.5-3.4,1.4c-2.7,0-4.6-1.5-4.6-4.9v-6.1h3.1v5.7
						c0,1.8,0.8,2.6,2.2,2.6s2.5-0.9,2.5-2.9v-5.4H201.2z"/>
					<path class="st4" d="M215.2,194.7v6.2h-3.1v-5.7c0-1.8-0.8-2.6-2.2-2.6s-2.6,0.9-2.6,2.9v5.4h-3.1v-10.8h3v1.3
						c0.9-1,2.2-1.5,3.6-1.4C213.3,189.9,215.2,191.4,215.2,194.7z"/>
					<path class="st4" d="M217.7,186.8c0-1,0.8-1.8,1.8-1.8c0.1,0,0.1,0,0.2,0c1-0.1,1.9,0.5,2,1.5c0,0.1,0,0.1,0,0.2
						c-0.2,1.1-1.3,1.8-2.4,1.6C218.6,188.1,217.9,187.6,217.7,186.8L217.7,186.8z M218.1,190.1h3.1v10.8h-3.1V190.1z"/>
					<path class="st4" d="M223.3,195.5c0-3.3,2.5-5.6,6-5.6c2-0.2,4,0.9,4.9,2.8l-2.4,1.3c-0.5-0.9-1.4-1.5-2.4-1.5
						c-1.7,0-3,1.3-3,3s1.3,3,3,3c1,0,2-0.6,2.4-1.5l2.4,1.3c-0.9,1.8-2.8,2.9-4.9,2.7C225.9,201.1,223.3,198.8,223.3,195.5z"/>
					<path class="st4" d="M245.6,194.7v6.2h-2.9v-1.4c-0.7,1.1-2,1.7-3.3,1.5c-2.5,0-4-1.4-4-3.3s1.4-3.3,4.6-3.3h2.5
						c0-1.4-0.8-2.1-2.5-2.1c-1.1,0-2.2,0.3-3.1,1l-1.1-2.2c1.4-0.9,3-1.3,4.7-1.3C243.7,189.9,245.6,191.4,245.6,194.7z
						 M242.5,197.5v-1.1h-2.2c-1.5,0-1.9,0.5-1.9,1.3s0.7,1.3,1.8,1.3C241.2,199,242.1,198.4,242.5,197.5L242.5,197.5z"/>
					<path class="st4" d="M255.5,200.4c-0.8,0.5-1.7,0.7-2.6,0.7c-2.6,0-4-1.3-4-3.9v-4.4h-1.7v-2.4h1.7v-2.6h3.1v2.6h2.7v2.4H252
						v4.4c-0.1,0.7,0.4,1.3,1.1,1.4c0.1,0,0.2,0,0.3,0c0.5,0,0.9-0.1,1.3-0.4L255.5,200.4z"/>
					<path class="st4" d="M256.9,186.8c0-1,0.8-1.8,1.8-1.8c0.1,0,0.1,0,0.2,0c1-0.1,1.9,0.6,2,1.5c0,0.1,0,0.1,0,0.2
						c-0.2,1.1-1.2,1.8-2.3,1.6C257.7,188.2,257.1,187.6,256.9,186.8L256.9,186.8z M257.2,190.1h3.1v10.8h-3.1V190.1z"/>
					<path class="st4" d="M262.5,195.5c0-3.3,2.5-5.6,6-5.6s6,2.3,6,5.6s-2.5,5.6-6,5.6S262.5,198.8,262.5,195.5z M271.2,195.5
						c-0.1-1.5-1.5-2.7-3-2.6c-1.5,0.1-2.7,1.5-2.6,3c0.1,1.4,1.3,2.6,2.8,2.6c1.5,0,2.8-1.2,2.8-2.7
						C271.2,195.7,271.2,195.6,271.2,195.5z"/>
					<path class="st4" d="M287.6,194.7v6.2h-3.1v-5.7c0-1.8-0.8-2.6-2.2-2.6s-2.6,0.9-2.6,2.9v5.4h-3.1v-10.8h3v1.3
						c0.9-1,2.2-1.5,3.6-1.4C285.6,189.9,287.6,191.4,287.6,194.7z"/>
					<path class="st4" d="M307.3,190.1v9c0,4-2.2,5.9-6.1,5.9c-1.9,0.1-3.7-0.4-5.3-1.5l1.3-2.3c1.1,0.8,2.4,1.2,3.8,1.2
						c2.2,0,3.2-1,3.2-3V199c-0.9,0.9-2.1,1.4-3.4,1.4c-2.9,0-5.2-2.3-5.2-5.2c0-2.9,2.3-5.2,5.2-5.2c0,0,0,0,0,0
						c1.4-0.1,2.7,0.5,3.6,1.6V190L307.3,190.1z M304.2,195.1c0.1-1.6-1.1-2.9-2.7-3.1c-1.6-0.1-2.9,1.1-3.1,2.7s1.1,2.9,2.7,3.1
						c0.1,0,0.1,0,0.2,0c1.4,0.1,2.7-1,2.8-2.4C304.2,195.3,304.2,195.2,304.2,195.1z"/>
					<path class="st4" d="M310.2,186h3.1v15h-3.1V186z"/>
					<path class="st4" d="M315.5,195.5c0-3.3,2.5-5.6,6-5.6s5.9,2.3,5.9,5.6s-2.5,5.6-5.9,5.6S315.5,198.8,315.5,195.5z
						 M324.2,195.5c-0.1-1.5-1.5-2.7-3-2.6c-1.5,0.1-2.7,1.5-2.6,3c0.1,1.4,1.3,2.6,2.8,2.6c1.5,0,2.8-1.2,2.8-2.7
						C324.2,195.7,324.2,195.6,324.2,195.5z"/>
				</g>
				<g>
					<path class="st5" d="M134,195.5c0-3.3,2.5-5.6,6-5.6s5.9,2.3,5.9,5.6s-2.5,5.6-5.9,5.6S134,198.8,134,195.5z M142.7,195.5
						c-0.1-1.5-1.5-2.7-3-2.6c-1.5,0.1-2.7,1.5-2.6,3c0.1,1.4,1.3,2.6,2.8,2.6c1.5,0,2.8-1.2,2.8-2.7
						C142.8,195.7,142.8,195.6,142.7,195.5L142.7,195.5z"/>
					<path class="st5" d="M166.4,194.7v6.2h-3.2v-5.7c0-1.8-0.8-2.6-2-2.6s-2.4,0.9-2.4,2.8v5.4h-3.2v-5.7c0-1.8-0.7-2.6-2-2.6
						s-2.4,0.9-2.4,2.8v5.4H148v-10.8h3v1.3c0.9-0.9,2.1-1.5,3.4-1.4c1.4-0.1,2.8,0.6,3.6,1.8c1-1.2,2.4-1.8,3.9-1.8
						C164.5,189.9,166.4,191.4,166.4,194.7z"/>
					<path class="st5" d="M187.5,194.7v6.2h-3.1v-5.7c0-1.8-0.8-2.6-2.1-2.6s-2.4,0.9-2.4,2.8v5.4h-3.1v-5.7c0-1.8-0.7-2.6-2.1-2.6
						s-2.4,0.9-2.4,2.8v5.4h-3.1v-10.8h3v1.3c0.9-0.9,2.1-1.5,3.4-1.4c1.4-0.1,2.8,0.6,3.6,1.8c1-1.2,2.4-1.8,3.9-1.8
						C185.6,189.9,187.5,191.4,187.5,194.7z"/>
					<path class="st5" d="M201.2,190.1v10.8h-3v-1.3c-0.9,1-2.1,1.5-3.4,1.4c-2.7,0-4.6-1.5-4.6-4.9v-6.1h3.1v5.7
						c0,1.8,0.8,2.6,2.2,2.6s2.5-0.9,2.5-2.9v-5.4H201.2z"/>
					<path class="st5" d="M215.2,194.7v6.2h-3.1v-5.7c0-1.8-0.8-2.6-2.2-2.6s-2.6,0.9-2.6,2.9v5.4h-3.1v-10.8h3v1.3
						c0.9-1,2.2-1.5,3.6-1.4C213.3,189.9,215.2,191.4,215.2,194.7z"/>
					<path class="st5" d="M217.7,186.8c0-1,0.8-1.8,1.8-1.8c0.1,0,0.1,0,0.2,0c1-0.1,1.9,0.5,2,1.5c0,0.1,0,0.1,0,0.2
						c-0.2,1.1-1.3,1.8-2.4,1.6C218.6,188.1,217.9,187.6,217.7,186.8L217.7,186.8z M218.1,190.1h3.1v10.8h-3.1V190.1z"/>
					<path class="st5" d="M223.3,195.5c0-3.3,2.5-5.6,6-5.6c2-0.2,4,0.9,4.9,2.8l-2.4,1.3c-0.5-0.9-1.4-1.5-2.4-1.5
						c-1.7,0-3,1.3-3,3s1.3,3,3,3c1,0,2-0.6,2.4-1.5l2.4,1.3c-0.9,1.8-2.8,2.9-4.9,2.7C225.9,201.1,223.3,198.8,223.3,195.5z"/>
					<path class="st5" d="M245.6,194.7v6.2h-2.9v-1.4c-0.7,1.1-2,1.7-3.3,1.5c-2.5,0-4-1.4-4-3.3s1.4-3.3,4.6-3.3h2.5
						c0-1.4-0.8-2.1-2.5-2.1c-1.1,0-2.2,0.3-3.1,1l-1.1-2.2c1.4-0.9,3-1.3,4.7-1.3C243.7,189.9,245.6,191.4,245.6,194.7z
						 M242.5,197.5v-1.1h-2.2c-1.5,0-1.9,0.5-1.9,1.3s0.7,1.3,1.8,1.3C241.2,199,242.1,198.4,242.5,197.5L242.5,197.5z"/>
					<path class="st5" d="M255.5,200.4c-0.8,0.5-1.7,0.7-2.6,0.7c-2.6,0-4-1.3-4-3.9v-4.4h-1.7v-2.4h1.7v-2.6h3.1v2.6h2.7v2.4H252
						v4.4c-0.1,0.7,0.4,1.3,1.1,1.4c0.1,0,0.2,0,0.3,0c0.5,0,0.9-0.1,1.3-0.4L255.5,200.4z"/>
					<path class="st5" d="M256.9,186.8c0-1,0.8-1.8,1.8-1.8c0.1,0,0.1,0,0.2,0c1-0.1,1.9,0.6,2,1.5c0,0.1,0,0.1,0,0.2
						c-0.2,1.1-1.2,1.8-2.3,1.6C257.7,188.2,257.1,187.6,256.9,186.8L256.9,186.8z M257.2,190.1h3.1v10.8h-3.1V190.1z"/>
					<path class="st5" d="M262.5,195.5c0-3.3,2.5-5.6,6-5.6s6,2.3,6,5.6s-2.5,5.6-6,5.6S262.5,198.8,262.5,195.5z M271.2,195.5
						c-0.1-1.5-1.5-2.7-3-2.6c-1.5,0.1-2.7,1.5-2.6,3c0.1,1.4,1.3,2.6,2.8,2.6c1.5,0,2.8-1.2,2.8-2.7
						C271.2,195.7,271.2,195.6,271.2,195.5z"/>
					<path class="st5" d="M287.6,194.7v6.2h-3.1v-5.7c0-1.8-0.8-2.6-2.2-2.6s-2.6,0.9-2.6,2.9v5.4h-3.1v-10.8h3v1.3
						c0.9-1,2.2-1.5,3.6-1.4C285.6,189.9,287.6,191.4,287.6,194.7z"/>
					<path class="st5" d="M307.3,190.1v9c0,4-2.2,5.9-6.1,5.9c-1.9,0.1-3.7-0.4-5.3-1.5l1.3-2.3c1.1,0.8,2.4,1.2,3.8,1.2
						c2.2,0,3.2-1,3.2-3V199c-0.9,0.9-2.1,1.4-3.4,1.4c-2.9,0-5.2-2.3-5.2-5.2c0-2.9,2.3-5.2,5.2-5.2c0,0,0,0,0,0
						c1.4-0.1,2.7,0.5,3.6,1.6V190L307.3,190.1z M304.2,195.1c0.1-1.6-1.1-2.9-2.7-3.1c-1.6-0.1-2.9,1.1-3.1,2.7s1.1,2.9,2.7,3.1
						c0.1,0,0.1,0,0.2,0c1.4,0.1,2.7-1,2.8-2.4C304.2,195.3,304.2,195.2,304.2,195.1z"/>
					<path class="st5" d="M310.2,186h3.1v15h-3.1V186z"/>
					<path class="st5" d="M315.5,195.5c0-3.3,2.5-5.6,6-5.6s5.9,2.3,5.9,5.6s-2.5,5.6-5.9,5.6S315.5,198.8,315.5,195.5z
						 M324.2,195.5c-0.1-1.5-1.5-2.7-3-2.6c-1.5,0.1-2.7,1.5-2.6,3c0.1,1.4,1.3,2.6,2.8,2.6c1.5,0,2.8-1.2,2.8-2.7
						C324.2,195.7,324.2,195.6,324.2,195.5z"/>
				</g>
				<g>
					<path class="st4" d="M341.3,195.5c0.2,2.9-2,5.4-4.9,5.6c-0.2,0-0.3,0-0.5,0c-1.3,0.1-2.5-0.4-3.4-1.4v1.3h-3V186h3.1v5.3
						c0.8-0.9,2-1.4,3.3-1.3c2.9-0.1,5.3,2.2,5.4,5.1C341.3,195.2,341.3,195.3,341.3,195.5z M338.1,195.5c-0.1-1.5-1.5-2.7-3-2.5
						c-1.5,0.1-2.7,1.5-2.5,3c0.1,1.4,1.3,2.5,2.8,2.5c1.5,0,2.7-1.2,2.8-2.7C338.2,195.7,338.2,195.6,338.1,195.5z"/>
				</g>
				<g>
					<path class="st5" d="M341.3,195.5c0.2,2.9-2,5.4-4.9,5.6c-0.2,0-0.3,0-0.5,0c-1.3,0.1-2.5-0.4-3.4-1.4v1.3h-3V186h3.1v5.3
						c0.8-0.9,2-1.4,3.3-1.3c2.9-0.1,5.3,2.2,5.4,5.1C341.3,195.2,341.3,195.3,341.3,195.5z M338.1,195.5c-0.1-1.5-1.5-2.7-3-2.5
						c-1.5,0.1-2.7,1.5-2.5,3c0.1,1.4,1.3,2.5,2.8,2.5c1.5,0,2.7-1.2,2.8-2.7C338.2,195.7,338.2,195.6,338.1,195.5z"/>
				</g>
				<g>
					<path class="st4" d="M352.9,194.7v6.2h-2.9v-1.4c-0.7,1.1-2,1.7-3.3,1.5c-2.5,0-4-1.4-4-3.3s1.4-3.3,4.7-3.3h2.5
						c0-1.4-0.8-2.1-2.5-2.1c-1.1,0-2.2,0.3-3.1,1l-1.1-2.2c1.4-0.9,3-1.3,4.7-1.3C350.9,189.9,352.9,191.4,352.9,194.7z
						 M349.7,197.5v-1.1h-2.2c-1.5,0-1.9,0.5-1.9,1.3s0.7,1.3,1.8,1.3C348.4,199,349.3,198.4,349.7,197.5L349.7,197.5z"/>
					<path class="st4" d="M355.7,186h3.1v15h-3.1V186z"/>
					<path class="st4" d="M372.3,196.4h-8.2c0.4,1.4,1.7,2.3,3.1,2.2c1,0.1,2-0.3,2.7-1l1.7,1.8c-1.2,1.2-2.8,1.9-4.5,1.8
						c-3.8,0-6.2-2.4-6.2-5.6c0-3,2.4-5.5,5.5-5.6c0.1,0,0.2,0,0.3,0c3-0.2,5.5,2.1,5.6,5.1c0,0.2,0,0.4,0,0.5
						C372.4,195.8,372.3,196.1,372.3,196.4z M364.1,194.5h5.3c-0.3-1.5-1.7-2.5-3.1-2.2C365.1,192.5,364.3,193.4,364.1,194.5z"/>
				</g>
				<g>
					<path class="st5" d="M352.9,194.7v6.2h-2.9v-1.4c-0.7,1.1-2,1.7-3.3,1.5c-2.5,0-4-1.4-4-3.3s1.4-3.3,4.7-3.3h2.5
						c0-1.4-0.8-2.1-2.5-2.1c-1.1,0-2.2,0.3-3.1,1l-1.1-2.2c1.4-0.9,3-1.3,4.7-1.3C350.9,189.9,352.9,191.4,352.9,194.7z
						 M349.7,197.5v-1.1h-2.2c-1.5,0-1.9,0.5-1.9,1.3s0.7,1.3,1.8,1.3C348.4,199,349.3,198.4,349.7,197.5L349.7,197.5z"/>
					<path class="st5" d="M355.7,186h3.1v15h-3.1V186z"/>
					<path class="st5" d="M372.3,196.4h-8.2c0.4,1.4,1.7,2.3,3.1,2.2c1,0.1,2-0.3,2.7-1l1.7,1.8c-1.2,1.2-2.8,1.9-4.5,1.8
						c-3.8,0-6.2-2.4-6.2-5.6c0-3,2.4-5.5,5.5-5.6c0.1,0,0.2,0,0.3,0c3-0.2,5.5,2.1,5.6,5.1c0,0.2,0,0.4,0,0.5
						C372.4,195.8,372.3,196.1,372.3,196.4z M364.1,194.5h5.3c-0.3-1.5-1.7-2.5-3.1-2.2C365.1,192.5,364.3,193.4,364.1,194.5z"/>
				</g>
			</g>
			<g>
				<g class="st6">
					<path class="st7" d="M13.8,197.9H7.3l-1.2,3H2.7L9,186.8h3.2l6.3,14.1h-3.4L13.8,197.9z M12.8,195.4l-2.2-5.4l-2.2,5.4H12.8z"
						/>
				</g>
				<g class="st6">
					<path class="st7" d="M30.8,190.1v9c0,2-0.5,3.5-1.6,4.4c-1,1-2.5,1.5-4.5,1.5c-1,0-2-0.1-3-0.4c-0.9-0.3-1.7-0.6-2.3-1.1
						l1.2-2.3c0.5,0.4,1,0.7,1.7,0.9c0.7,0.2,1.4,0.3,2.1,0.3c1.1,0,1.9-0.2,2.4-0.7c0.5-0.5,0.8-1.2,0.8-2.2V199
						c-0.8,0.9-2,1.4-3.4,1.4c-1,0-1.9-0.2-2.7-0.7c-0.8-0.4-1.5-1.1-2-1.8c-0.5-0.8-0.7-1.7-0.7-2.7c0-1,0.2-1.9,0.7-2.7
						c0.5-0.8,1.1-1.4,2-1.8c0.8-0.4,1.7-0.7,2.7-0.7c1.6,0,2.8,0.5,3.6,1.6v-1.4H30.8z M26.9,197.1c0.5-0.5,0.8-1.1,0.8-1.9
						s-0.3-1.4-0.8-1.9s-1.2-0.7-2-0.7c-0.8,0-1.5,0.2-2.1,0.7s-0.8,1.1-0.8,1.9s0.3,1.4,0.8,1.9c0.5,0.5,1.2,0.7,2.1,0.7
						C25.7,197.8,26.4,197.6,26.9,197.1z"/>
					<path class="st7" d="M44.3,196.4h-8.2c0.1,0.7,0.5,1.2,1,1.6c0.6,0.4,1.2,0.6,2.1,0.6c0.6,0,1.1-0.1,1.5-0.3s0.8-0.4,1.2-0.8
						l1.7,1.8c-1,1.2-2.5,1.8-4.5,1.8c-1.2,0-2.3-0.2-3.2-0.7c-0.9-0.5-1.7-1.1-2.2-2c-0.5-0.8-0.8-1.8-0.8-2.9c0-1.1,0.3-2,0.8-2.9
						c0.5-0.9,1.2-1.5,2.1-2c0.9-0.5,1.9-0.7,3-0.7c1.1,0,2,0.2,2.9,0.7c0.9,0.5,1.5,1.1,2,2c0.5,0.9,0.7,1.8,0.7,3
						C44.4,195.6,44.3,195.8,44.3,196.4z M36.9,192.9c-0.5,0.4-0.8,1-0.9,1.7h5.3c-0.1-0.7-0.4-1.2-0.9-1.6s-1.1-0.6-1.8-0.6
						C38,192.3,37.4,192.5,36.9,192.9z"/>
				</g>
				<g class="st6">
					<path class="st7" d="M56.3,191.1c0.8,0.8,1.2,2,1.2,3.6v6.2h-3.1v-5.7c0-0.9-0.2-1.5-0.6-1.9c-0.4-0.4-0.9-0.6-1.6-0.6
						c-0.8,0-1.4,0.2-1.9,0.7c-0.5,0.5-0.7,1.2-0.7,2.2v5.4h-3.1v-10.8h3v1.3c0.4-0.5,0.9-0.8,1.6-1.1c0.6-0.3,1.3-0.4,2-0.4
						C54.4,189.9,55.5,190.3,56.3,191.1z"/>
				</g>
				<g class="st6">
					<path class="st7" d="M62.6,200.3c-0.9-0.5-1.6-1.1-2.2-2s-0.8-1.8-0.8-2.9c0-1.1,0.3-2,0.8-2.9c0.5-0.8,1.2-1.5,2.2-2
						c0.9-0.5,2-0.7,3.1-0.7c1.1,0,2.1,0.2,3,0.7c0.9,0.5,1.5,1.2,1.9,2l-2.4,1.3c-0.6-1-1.4-1.5-2.4-1.5c-0.8,0-1.5,0.3-2,0.8
						s-0.8,1.3-0.8,2.2c0,0.9,0.3,1.7,0.8,2.2s1.2,0.8,2,0.8c1.1,0,1.9-0.5,2.4-1.5l2.4,1.3c-0.4,0.9-1,1.5-1.9,2
						c-0.9,0.5-1.9,0.7-3,0.7C64.6,201.1,63.6,200.8,62.6,200.3z"/>
				</g>
				<g class="st6">
					<path class="st7" d="M82.8,196.4h-8.2c0.1,0.7,0.5,1.2,1,1.6c0.6,0.4,1.2,0.6,2.1,0.6c0.6,0,1.1-0.1,1.5-0.3s0.8-0.4,1.2-0.8
						l1.7,1.8c-1,1.2-2.5,1.8-4.5,1.8c-1.2,0-2.3-0.2-3.2-0.7c-0.9-0.5-1.7-1.1-2.2-2c-0.5-0.8-0.8-1.8-0.8-2.9c0-1.1,0.3-2,0.8-2.9
						c0.5-0.9,1.2-1.5,2.1-2c0.9-0.5,1.9-0.7,3-0.7c1.1,0,2,0.2,2.9,0.7c0.9,0.5,1.5,1.1,2,2c0.5,0.9,0.7,1.8,0.7,3
						C82.9,195.6,82.9,195.8,82.8,196.4z M75.5,192.9c-0.5,0.4-0.8,1-0.9,1.7h5.3c-0.1-0.7-0.4-1.2-0.9-1.6s-1.1-0.6-1.8-0.6
						C76.6,192.3,76,192.5,75.5,192.9z"/>
					<path class="st7" d="M101.7,185.9v15h-3v-1.3c-0.8,0.9-1.9,1.4-3.4,1.4c-1,0-1.9-0.2-2.8-0.7c-0.8-0.5-1.5-1.1-1.9-2
						c-0.5-0.8-0.7-1.8-0.7-2.9s0.2-2.1,0.7-2.9c0.5-0.8,1.1-1.5,1.9-2c0.8-0.5,1.7-0.7,2.8-0.7c1.4,0,2.5,0.4,3.2,1.3v-5.3H101.7z
						 M97.9,197.7c0.5-0.5,0.8-1.3,0.8-2.2c0-0.9-0.3-1.6-0.8-2.2c-0.5-0.5-1.2-0.8-2-0.8c-0.8,0-1.5,0.3-2,0.8
						c-0.5,0.5-0.8,1.3-0.8,2.2c0,0.9,0.3,1.6,0.8,2.2c0.5,0.5,1.2,0.8,2,0.8C96.7,198.5,97.3,198.2,97.9,197.7z"/>
					<path class="st7" d="M115.2,196.4H107c0.1,0.7,0.5,1.2,1,1.6c0.6,0.4,1.2,0.6,2.1,0.6c0.6,0,1.1-0.1,1.5-0.3s0.8-0.4,1.2-0.8
						l1.7,1.8c-1,1.2-2.5,1.8-4.5,1.8c-1.2,0-2.3-0.2-3.2-0.7c-0.9-0.5-1.7-1.1-2.2-2c-0.5-0.8-0.8-1.8-0.8-2.9c0-1.1,0.3-2,0.8-2.9
						c0.5-0.9,1.2-1.5,2.1-2c0.9-0.5,1.9-0.7,3-0.7c1.1,0,2,0.2,2.9,0.7c0.9,0.5,1.5,1.1,2,2c0.5,0.9,0.7,1.8,0.7,3
						C115.3,195.6,115.2,195.8,115.2,196.4z M107.8,192.9c-0.5,0.4-0.8,1-0.9,1.7h5.3c-0.1-0.7-0.4-1.2-0.9-1.6s-1.1-0.6-1.8-0.6
						C108.9,192.3,108.3,192.5,107.8,192.9z"/>
				</g>
				<g class="st6">
					<path class="st7" d="M125.2,200.3c-0.9-0.5-1.6-1.1-2.2-2s-0.8-1.8-0.8-2.9c0-1.1,0.3-2,0.8-2.9c0.5-0.8,1.2-1.5,2.2-2
						c0.9-0.5,2-0.7,3.1-0.7c1.1,0,2.1,0.2,3,0.7c0.9,0.5,1.5,1.2,1.9,2l-2.4,1.3c-0.6-1-1.4-1.5-2.4-1.5c-0.8,0-1.5,0.3-2,0.8
						s-0.8,1.3-0.8,2.2c0,0.9,0.3,1.7,0.8,2.2s1.2,0.8,2,0.8c1.1,0,1.9-0.5,2.4-1.5l2.4,1.3c-0.4,0.9-1,1.5-1.9,2
						c-0.9,0.5-1.9,0.7-3,0.7C127.1,201.1,126.1,200.8,125.2,200.3z"/>
				</g>
				<g class="st6">
					<path class="st7" d="M136.9,200.3c-0.9-0.5-1.6-1.1-2.1-2c-0.5-0.8-0.8-1.8-0.8-2.9c0-1.1,0.3-2,0.8-2.9c0.5-0.8,1.2-1.5,2.1-2
						s1.9-0.7,3.1-0.7c1.1,0,2.2,0.2,3.1,0.7s1.6,1.1,2.1,2c0.5,0.8,0.8,1.8,0.8,2.9c0,1.1-0.3,2-0.8,2.9s-1.2,1.5-2.1,2
						s-1.9,0.7-3.1,0.7C138.8,201.1,137.8,200.8,136.9,200.3z M142,197.7c0.5-0.5,0.8-1.3,0.8-2.2c0-0.9-0.3-1.6-0.8-2.2
						c-0.5-0.5-1.2-0.8-2-0.8c-0.8,0-1.5,0.3-2,0.8c-0.5,0.5-0.8,1.3-0.8,2.2c0,0.9,0.3,1.6,0.8,2.2c0.5,0.5,1.2,0.8,2,0.8
						C140.8,198.5,141.5,198.2,142,197.7z"/>
					<path class="st7" d="M165.1,191.1c0.8,0.8,1.2,2,1.2,3.6v6.2h-3.1v-5.7c0-0.9-0.2-1.5-0.5-1.9c-0.4-0.4-0.9-0.6-1.5-0.6
						c-0.7,0-1.3,0.2-1.8,0.7c-0.4,0.5-0.6,1.2-0.6,2.1v5.4h-3.1v-5.7c0-1.7-0.7-2.6-2.1-2.6c-0.7,0-1.3,0.2-1.7,0.7
						c-0.4,0.5-0.6,1.2-0.6,2.1v5.4H148v-10.8h3v1.3c0.4-0.5,0.9-0.8,1.5-1c0.6-0.2,1.2-0.4,1.9-0.4c0.8,0,1.5,0.2,2.1,0.5
						c0.6,0.3,1.1,0.7,1.5,1.3c0.4-0.6,1-1,1.7-1.3s1.4-0.5,2.2-0.5C163.3,189.9,164.3,190.3,165.1,191.1z"/>
					<path class="st7" d="M186.3,191.1c0.8,0.8,1.2,2,1.2,3.6v6.2h-3.1v-5.7c0-0.9-0.2-1.5-0.5-1.9c-0.4-0.4-0.9-0.6-1.5-0.6
						c-0.7,0-1.3,0.2-1.8,0.7c-0.4,0.5-0.6,1.2-0.6,2.1v5.4h-3.1v-5.7c0-1.7-0.7-2.6-2.1-2.6c-0.7,0-1.3,0.2-1.7,0.7
						c-0.4,0.5-0.6,1.2-0.6,2.1v5.4h-3.1v-10.8h3v1.3c0.4-0.5,0.9-0.8,1.5-1c0.6-0.2,1.2-0.4,1.9-0.4c0.8,0,1.5,0.2,2.1,0.5
						c0.6,0.3,1.1,0.7,1.5,1.3c0.4-0.6,1-1,1.7-1.3s1.4-0.5,2.2-0.5C184.4,189.9,185.5,190.3,186.3,191.1z"/>
					<path class="st7" d="M201.2,190.1v10.8h-3v-1.3c-0.4,0.5-0.9,0.8-1.5,1.1c-0.6,0.3-1.2,0.4-1.9,0.4c-1.4,0-2.6-0.4-3.4-1.2
						c-0.8-0.8-1.2-2-1.2-3.6v-6.1h3.1v5.7c0,1.7,0.7,2.6,2.2,2.6c0.8,0,1.4-0.2,1.8-0.7c0.5-0.5,0.7-1.2,0.7-2.2v-5.4H201.2z"/>
					<path class="st7" d="M214,191.1c0.8,0.8,1.2,2,1.2,3.6v6.2h-3.1v-5.7c0-0.9-0.2-1.5-0.6-1.9c-0.4-0.4-0.9-0.6-1.6-0.6
						c-0.8,0-1.4,0.2-1.9,0.7c-0.5,0.5-0.7,1.2-0.7,2.2v5.4h-3.1v-10.8h3v1.3c0.4-0.5,0.9-0.8,1.6-1.1c0.6-0.3,1.3-0.4,2-0.4
						C212.1,189.9,213.2,190.3,214,191.1z"/>
					<path class="st7" d="M218.2,188c-0.4-0.3-0.5-0.8-0.5-1.3c0-0.5,0.2-0.9,0.5-1.3c0.4-0.3,0.8-0.5,1.4-0.5c0.6,0,1,0.2,1.4,0.5
						c0.4,0.3,0.5,0.7,0.5,1.2c0,0.5-0.2,1-0.5,1.3c-0.4,0.3-0.8,0.5-1.4,0.5C219.1,188.5,218.6,188.4,218.2,188z M218.1,190.1h3.1
						v10.8h-3.1V190.1z"/>
					<path class="st7" d="M226.3,200.3c-0.9-0.5-1.6-1.1-2.2-2c-0.5-0.8-0.8-1.8-0.8-2.9c0-1.1,0.3-2,0.8-2.9c0.5-0.8,1.2-1.5,2.2-2
						s2-0.7,3.1-0.7c1.1,0,2.1,0.2,3,0.7s1.5,1.2,1.9,2l-2.4,1.3c-0.6-1-1.4-1.5-2.4-1.5c-0.8,0-1.5,0.3-2,0.8s-0.8,1.3-0.8,2.2
						c0,0.9,0.3,1.7,0.8,2.2s1.2,0.8,2,0.8c1.1,0,1.9-0.5,2.4-1.5l2.4,1.3c-0.4,0.9-1,1.5-1.9,2c-0.9,0.5-1.9,0.7-3,0.7
						C228.2,201.1,227.2,200.8,226.3,200.3z"/>
					<path class="st7" d="M244.3,191.1c0.9,0.8,1.3,2,1.3,3.6v6.2h-2.9v-1.3c-0.6,1-1.7,1.5-3.3,1.5c-0.8,0-1.6-0.1-2.2-0.4
						c-0.6-0.3-1.1-0.7-1.4-1.2c-0.3-0.5-0.5-1.1-0.5-1.7c0-1,0.4-1.8,1.1-2.4c0.8-0.6,1.9-0.9,3.5-0.9h2.5c0-0.7-0.2-1.2-0.6-1.6
						c-0.4-0.4-1-0.6-1.9-0.6c-0.6,0-1.1,0.1-1.7,0.3c-0.6,0.2-1,0.4-1.4,0.7l-1.1-2.2c0.6-0.4,1.3-0.7,2.1-1s1.7-0.3,2.5-0.3
						C242.1,189.9,243.4,190.3,244.3,191.1z M241.6,198.6c0.4-0.2,0.7-0.6,0.9-1.1v-1.1h-2.2c-1.3,0-1.9,0.4-1.9,1.3
						c0,0.4,0.2,0.7,0.5,1c0.3,0.2,0.7,0.4,1.3,0.4C240.7,198.9,241.2,198.8,241.6,198.6z"/>
					<path class="st7" d="M255.5,200.4c-0.3,0.2-0.7,0.4-1.1,0.5c-0.5,0.1-0.9,0.2-1.4,0.2c-1.3,0-2.3-0.3-3-1
						c-0.7-0.7-1.1-1.6-1.1-2.9v-4.5h-1.7v-2.4h1.7v-2.6h3.1v2.6h2.7v2.4H252v4.4c0,0.5,0.1,0.8,0.4,1.1c0.2,0.2,0.6,0.4,1,0.4
						c0.5,0,0.9-0.1,1.3-0.4L255.5,200.4z"/>
					<path class="st7" d="M257.4,188c-0.4-0.3-0.5-0.8-0.5-1.3c0-0.5,0.2-0.9,0.5-1.3c0.4-0.3,0.8-0.5,1.4-0.5c0.6,0,1,0.2,1.4,0.5
						c0.4,0.3,0.5,0.7,0.5,1.2c0,0.5-0.2,1-0.5,1.3c-0.4,0.3-0.8,0.5-1.4,0.5C258.2,188.5,257.8,188.4,257.4,188z M257.2,190.1h3.1
						v10.8h-3.1V190.1z"/>
					<path class="st7" d="M265.4,200.3c-0.9-0.5-1.6-1.1-2.1-2s-0.8-1.8-0.8-2.9c0-1.1,0.3-2,0.8-2.9c0.5-0.8,1.2-1.5,2.1-2
						c0.9-0.5,1.9-0.7,3.1-0.7c1.1,0,2.2,0.2,3.1,0.7c0.9,0.5,1.6,1.1,2.1,2c0.5,0.8,0.8,1.8,0.8,2.9c0,1.1-0.3,2-0.8,2.9
						s-1.2,1.5-2.1,2c-0.9,0.5-1.9,0.7-3.1,0.7C267.3,201.1,266.3,200.8,265.4,200.3z M270.4,197.7c0.5-0.5,0.8-1.3,0.8-2.2
						c0-0.9-0.3-1.6-0.8-2.2c-0.5-0.5-1.2-0.8-2-0.8c-0.8,0-1.5,0.3-2,0.8c-0.5,0.5-0.8,1.3-0.8,2.2c0,0.9,0.3,1.6,0.8,2.2
						c0.5,0.5,1.2,0.8,2,0.8C269.3,198.5,269.9,198.2,270.4,197.7z"/>
					<path class="st7" d="M286.3,191.1c0.8,0.8,1.2,2,1.2,3.6v6.2h-3.1v-5.7c0-0.9-0.2-1.5-0.6-1.9c-0.4-0.4-0.9-0.6-1.6-0.6
						c-0.8,0-1.4,0.2-1.9,0.7c-0.5,0.5-0.7,1.2-0.7,2.2v5.4h-3.1v-10.8h3v1.3c0.4-0.5,0.9-0.8,1.6-1.1c0.6-0.3,1.3-0.4,2-0.4
						C284.4,189.9,285.5,190.3,286.3,191.1z"/>
					<path class="st7" d="M307.3,190.1v9c0,2-0.5,3.5-1.6,4.4s-2.5,1.5-4.5,1.5c-1,0-2-0.1-3-0.4c-0.9-0.3-1.7-0.6-2.3-1.1l1.3-2.3
						c0.5,0.4,1,0.7,1.7,0.9c0.7,0.2,1.4,0.3,2.1,0.3c1.1,0,1.9-0.2,2.4-0.7c0.5-0.5,0.8-1.2,0.8-2.2V199c-0.8,0.9-2,1.4-3.4,1.4
						c-1,0-1.9-0.2-2.7-0.7c-0.8-0.4-1.5-1.1-2-1.8s-0.7-1.7-0.7-2.7c0-1,0.2-1.9,0.7-2.7s1.1-1.4,2-1.8c0.8-0.4,1.7-0.7,2.7-0.7
						c1.6,0,2.8,0.5,3.6,1.6v-1.4H307.3z M303.4,197.1c0.5-0.5,0.8-1.1,0.8-1.9s-0.3-1.4-0.8-1.9c-0.5-0.5-1.2-0.7-2-0.7
						s-1.5,0.2-2.1,0.7s-0.8,1.1-0.8,1.9s0.3,1.4,0.8,1.9c0.5,0.5,1.2,0.7,2.1,0.7S302.9,197.6,303.4,197.1z"/>
					<path class="st7" d="M310.2,185.9h3.1v15h-3.1V185.9z"/>
					<path class="st7" d="M318.4,200.3c-0.9-0.5-1.6-1.1-2.1-2s-0.8-1.8-0.8-2.9c0-1.1,0.3-2,0.8-2.9c0.5-0.8,1.2-1.5,2.1-2
						c0.9-0.5,1.9-0.7,3.1-0.7c1.1,0,2.2,0.2,3.1,0.7c0.9,0.5,1.6,1.1,2.1,2c0.5,0.8,0.8,1.8,0.8,2.9c0,1.1-0.3,2-0.8,2.9
						s-1.2,1.5-2.1,2c-0.9,0.5-1.9,0.7-3.1,0.7C320.3,201.1,319.3,200.8,318.4,200.3z M323.4,197.7c0.5-0.5,0.8-1.3,0.8-2.2
						c0-0.9-0.3-1.6-0.8-2.2c-0.5-0.5-1.2-0.8-2-0.8c-0.8,0-1.5,0.3-2,0.8c-0.5,0.5-0.8,1.3-0.8,2.2c0,0.9,0.3,1.6,0.8,2.2
						c0.5,0.5,1.2,0.8,2,0.8C322.3,198.5,322.9,198.2,323.4,197.7z"/>
				</g>
				<g class="st6">
					<path class="st7" d="M338.7,190.6c0.8,0.5,1.5,1.1,1.9,2c0.5,0.8,0.7,1.8,0.7,2.9s-0.2,2.1-0.7,2.9c-0.5,0.8-1.1,1.5-1.9,2
						c-0.8,0.5-1.7,0.7-2.8,0.7c-1.5,0-2.6-0.5-3.4-1.4v1.3h-3v-15h3.1v5.3c0.8-0.9,1.9-1.3,3.3-1.3
						C336.9,189.9,337.9,190.1,338.7,190.6z M337.4,197.7c0.5-0.5,0.8-1.3,0.8-2.2c0-0.9-0.3-1.6-0.8-2.2c-0.5-0.5-1.2-0.8-2-0.8
						c-0.8,0-1.5,0.3-2,0.8c-0.5,0.5-0.8,1.3-0.8,2.2c0,0.9,0.3,1.6,0.8,2.2c0.5,0.5,1.2,0.8,2,0.8
						C336.2,198.5,336.9,198.2,337.4,197.7z"/>
				</g>
				<g class="st6">
					<path class="st7" d="M351.5,191.1c0.9,0.8,1.3,2,1.3,3.6v6.2h-2.9v-1.3c-0.6,1-1.7,1.5-3.3,1.5c-0.8,0-1.6-0.1-2.2-0.4
						c-0.6-0.3-1.1-0.7-1.4-1.2c-0.3-0.5-0.5-1.1-0.5-1.7c0-1,0.4-1.8,1.1-2.4c0.8-0.6,1.9-0.9,3.5-0.9h2.5c0-0.7-0.2-1.2-0.6-1.6
						c-0.4-0.4-1-0.6-1.9-0.6c-0.6,0-1.1,0.1-1.7,0.3c-0.6,0.2-1,0.4-1.4,0.7l-1.1-2.2c0.6-0.4,1.3-0.7,2.1-1s1.7-0.3,2.5-0.3
						C349.3,189.9,350.6,190.3,351.5,191.1z M348.8,198.6c0.4-0.2,0.7-0.6,0.9-1.1v-1.1h-2.2c-1.3,0-1.9,0.4-1.9,1.3
						c0,0.4,0.2,0.7,0.5,1c0.3,0.2,0.7,0.4,1.3,0.4C347.9,198.9,348.4,198.8,348.8,198.6z"/>
					<path class="st7" d="M355.7,185.9h3.1v15h-3.1V185.9z"/>
					<path class="st7" d="M372.3,196.4h-8.2c0.1,0.7,0.5,1.2,1,1.6c0.6,0.4,1.2,0.6,2.1,0.6c0.6,0,1.1-0.1,1.5-0.3s0.8-0.4,1.2-0.8
						l1.7,1.8c-1,1.2-2.5,1.8-4.5,1.8c-1.2,0-2.3-0.2-3.2-0.7c-0.9-0.5-1.7-1.1-2.2-2s-0.8-1.8-0.8-2.9c0-1.1,0.3-2,0.8-2.9
						c0.5-0.9,1.2-1.5,2.1-2s1.9-0.7,3-0.7c1.1,0,2,0.2,2.9,0.7c0.9,0.5,1.5,1.1,2,2c0.5,0.9,0.7,1.8,0.7,3
						C372.4,195.6,372.4,195.8,372.3,196.4z M365,192.9c-0.5,0.4-0.8,1-0.9,1.7h5.3c-0.1-0.7-0.4-1.2-0.9-1.6s-1.1-0.6-1.8-0.6
						C366,192.3,365.4,192.5,365,192.9z"/>
				</g>
			</g>
		</g>
	</g>
</g>
</svg>
