<svg xmlns="http://www.w3.org/2000/svg" viewBox="0 0 61.29 78.97"><defs><style>.cls-1{fill:none;stroke:#222653;stroke-linecap:round;stroke-linejoin:round;stroke-width:4.51px;}.cls-2{fill:#e02b88;}.cls-3{fill:#222653;}</style></defs><g id="Calque_2" data-name="Calque 2"><g id="Calque_1-2" data-name="Calque 1"><path class="cls-1" d="M2.27,30.09C3.19,7.77,30.57-3.85,47.08,11.4c16,14.75,7.88,42.35-13.61,46,.4,8,3.42,15,7.92,19.32C17.83,75.24,1.65,52.6,2.27,30.09,2.31,29.23,2.27,30.21,2.27,30.09Z"/><path class="cls-2" d="M2.87,29.41C3.79,7.1,31.17-4.53,47.69,10.72c16,14.76,7.87,42.35-13.61,46,.39,8,3.41,15,7.91,19.32C18.43,74.56,2.25,51.92,2.87,29.41,2.91,28.56,2.87,29.53,2.87,29.41Z"/><path class="cls-3" d="M46.57.32c6.45,3.55,11.26,9,13,16.26.26,1.13,2,.66,1.74-.47C59.43,8.73,54.12,2.25,46.7,0a.17.17,0,0,0-.13.31Z"/><path class="cls-3" d="M.74,60.16c2.28,5.33,5.82,12,11.57,14.28.68.27,1.08-.68.67-1.14-1.93-2.11-4.42-3.68-6.39-5.81a33.23,33.23,0,0,1-5.43-7.58c-.14-.29-.55,0-.42.25Z"/></g></g></svg>