<svg xmlns="http://www.w3.org/2000/svg" viewBox="0 0 505.84 659.78"><defs><style>.cls-1{fill:#bace00;}.cls-2{fill:#222653;}</style></defs><g id="Calque_2" data-name="Calque 2"><g id="Calque_1-2" data-name="Calque 1"><g id="Calque_2-2" data-name="Calque 2"><g id="Mode_Isolation" data-name="Mode Isolation"><path class="cls-1" d="M19.86,233.88c8.4-203.8,258.4-310,409.3-170.7,146,134.8,71.9,386.8-124.3,420.1,3.6,73.3,31.2,137.4,72.3,176.5-215.2-13.6-363-220.3-357.3-425.9C20.16,226.08,19.86,235,19.86,233.88Z"/><path class="cls-2" d="M.16,514.18c5.3,12.6,9.9,25.7,16.5,37.7a281.88,281.88,0,0,0,23.5,35.7,244,244,0,0,0,28.4,30.8c5.2,4.7,10.5,9.3,15.9,13.6,5.6,4.5,11.5,9.8,18,13a8.17,8.17,0,0,0,9.5-1.2,6.49,6.49,0,0,0,2-3.5,7.67,7.67,0,0,0-2-7.6c-5.1-4.7-11.3-8.2-16.8-12.5-5.1-4-10-8.1-14.9-12.4a346.26,346.26,0,0,1-29-29.1,330.06,330.06,0,0,1-25.1-31.5c-3.9-5.5-7.6-11.2-11.6-16.6-4.2-5.7-7.2-11.8-10.3-18.2-1.1-2.2-5.1-.6-4.1,1.8Z"/></g></g></g></g></svg>